<?xml version="1.0" encoding="utf-8"?>
<!-- Generator: Adobe Illustrator 19.0.1, SVG Export Plug-In . SVG Version: 6.00 Build 0)  -->
<svg version="1.1" id="Layer_1" xmlns="http://www.w3.org/2000/svg" xmlns:xlink="http://www.w3.org/1999/xlink" x="0px" y="0px"
	 width="375.7px" height="375.9px" viewBox="0 0 375.7 375.9" enable-background="new 0 0 375.7 375.9" xml:space="preserve">
<g>
	<g>
		<path d="M194,288.5l-53.4,53.4c-14.2,14.2-33.1,22.1-53.3,22.1c-20.1,0-39-7.8-53.3-22.1c-29.4-29.4-29.4-77.1,0-106.5
			l100.6-100.6c14.2-14.2,33.1-22.1,53.3-22.1c20.1,0,39,7.8,53.3,22.1c8.3,8.3,14.5,18.4,18.2,29.5l-47.6,47.6
			c-6.4,6.4-14.9,9.9-24,9.9c-9.1,0-17.6-3.5-24-9.9c-3.2-3.2-5.7-7-7.4-11.2c-1.2-3.1-4.7-4.6-7.8-3.3c-3.1,1.2-4.6,4.7-3.3,7.8
			c2.3,5.7,5.7,10.8,10.1,15.2c8.7,8.7,20.2,13.5,32.5,13.5c12.3,0,23.8-4.8,32.5-13.5l100.6-100.6c8.7-8.7,13.5-20.2,13.5-32.5
			c0-12.3-4.8-23.8-13.5-32.5c-8.7-8.7-20.2-13.5-32.5-13.5c-12.3,0-23.8,4.8-32.5,13.5l-31.8,31.8c-2.3,2.3-2.3,6.1,0,8.5
			c2.3,2.3,6.1,2.3,8.5,0l31.8-31.8c6.4-6.4,14.9-9.9,24-9.9c9.1,0,17.6,3.5,24,9.9c6.4,6.4,9.9,14.9,9.9,24c0,9.1-3.5,17.6-9.9,24
			l-43.7,43.7c-4.4-10.7-10.9-20.4-19.1-28.6c-34-34-89.4-34-123.5,0L25.5,226.9c-34,34-34,89.4,0,123.5c17,17,39.4,25.5,61.7,25.5
			c22.4,0,44.7-8.5,61.7-25.5l53.4-53.5c2.3-2.3,2.3-6.1,0-8.5C200.1,286.1,196.3,286.1,194,288.5L194,288.5z M194,288.5"/>
		<path d="M350.1,25.5c-34-34-89.4-34-123.5,0L173.1,79c-2.3,2.3-2.3,6.1,0,8.5c2.3,2.3,6.1,2.3,8.5,0L235.1,34
			c29.4-29.4,77.1-29.4,106.5,0c29.4,29.4,29.4,77.1,0,106.5L241,241.1c-14.2,14.2-33.1,22.1-53.3,22.1c-20.1,0-39-7.8-53.3-22.1
			c-8.3-8.3-14.5-18.4-18.2-29.5l47.6-47.6c6.4-6.4,14.9-9.9,24-9.9c9.1,0,17.6,3.5,24,9.9c3.2,3.2,5.7,7,7.4,11.2
			c1.2,3.1,4.7,4.6,7.8,3.3c3.1-1.2,4.6-4.7,3.3-7.8c-2.3-5.7-5.7-10.8-10.1-15.2c-8.7-8.7-20.2-13.5-32.5-13.5
			c-12.3,0-23.8,4.8-32.5,13.5l-49,49c-0.9,0.5-1.6,1.2-2.1,2.1l-49.5,49.5c-8.7,8.7-13.4,20.2-13.4,32.5c0,12.3,4.8,23.8,13.4,32.5
			c8.7,8.7,20.2,13.5,32.5,13.5c12.3,0,23.8-4.8,32.5-13.5l31.7-31.7c2.3-2.3,2.3-6.1,0-8.5c-2.3-2.3-6.1-2.3-8.5,0l-31.7,31.7
			c-6.4,6.4-14.9,9.9-24,9.9c-9.1,0-17.6-3.5-24-9.9c-6.4-6.4-9.9-14.9-9.9-24c0-9.1,3.5-17.6,9.9-24L107,221
			c4.4,10.7,10.9,20.4,19.1,28.6c16.5,16.5,38.4,25.6,61.7,25.6c23.3,0,45.3-9.1,61.7-25.6L350.1,149
			C384.2,115,384.2,59.6,350.1,25.5L350.1,25.5z M350.1,25.5"/>
	</g>
</g>
</svg>
