<?xml version="1.0" encoding="utf-8"?>
<!-- Generator: Adobe Illustrator 19.0.1, SVG Export Plug-In . SVG Version: 6.00 Build 0)  -->
<svg version="1.1" id="Layer_1" xmlns="http://www.w3.org/2000/svg" xmlns:xlink="http://www.w3.org/1999/xlink" x="0px" y="0px"
	 width="409.6px" height="323.8px" viewBox="0 0 409.6 323.8" enable-background="new 0 0 409.6 323.8" xml:space="preserve">
<g>
	<path d="M352,128h-38.4c-3.5,0-6.4,2.9-6.4,6.4c0,3.5,2.9,6.4,6.4,6.4H352c3.5,0,6.4-2.9,6.4-6.4C358.4,130.9,355.5,128,352,128
		L352,128z M352,128"/>
	<path d="M57.6,140.8H288c3.5,0,6.4-2.9,6.4-6.4c0-3.5-2.9-6.4-6.4-6.4H57.6c-3.5,0-6.4,2.9-6.4,6.4
		C51.2,137.9,54.1,140.8,57.6,140.8L57.6,140.8z M57.6,140.8"/>
	<path d="M352,89.6H224c-3.5,0-6.4,2.9-6.4,6.4c0,3.5,2.9,6.4,6.4,6.4h128c3.5,0,6.4-2.9,6.4-6.4C358.4,92.5,355.5,89.6,352,89.6
		L352,89.6z M352,89.6"/>
	<path d="M57.6,102.4h140.8c3.5,0,6.4-2.9,6.4-6.4c0-3.5-2.9-6.4-6.4-6.4H57.6c-3.5,0-6.4,2.9-6.4,6.4
		C51.2,99.5,54.1,102.4,57.6,102.4L57.6,102.4z M57.6,102.4"/>
	<path d="M352,166.4H115.2c-3.5,0-6.4,2.9-6.4,6.4c0,3.5,2.9,6.4,6.4,6.4H352c3.5,0,6.4-2.9,6.4-6.4
		C358.4,169.3,355.5,166.4,352,166.4L352,166.4z M352,166.4"/>
	<path d="M57.6,179.2h32c3.5,0,6.4-2.9,6.4-6.4c0-3.5-2.9-6.4-6.4-6.4h-32c-3.5,0-6.4,2.9-6.4,6.4C51.2,176.3,54.1,179.2,57.6,179.2
		L57.6,179.2z M57.6,179.2"/>
	<path d="M352,204.8H57.6c-3.5,0-6.4,2.9-6.4,6.4c0,3.5,2.9,6.4,6.4,6.4H352c3.5,0,6.4-2.9,6.4-6.4
		C358.4,207.7,355.5,204.8,352,204.8L352,204.8z M352,204.8"/>
	<path d="M352,51.2H57.6c-3.5,0-6.4,2.9-6.4,6.4c0,3.5,2.9,6.4,6.4,6.4H352c3.5,0,6.4-2.9,6.4-6.4C358.4,54.1,355.5,51.2,352,51.2
		L352,51.2z M352,51.2"/>
	<path d="M364.8,0h-320C20.1,0,0,20.1,0,44.8V224c0,22.5,16.7,41.2,38.4,44.3v42.6c0,5.2,3.1,9.8,7.9,11.8c1.6,0.7,3.3,1,4.9,1
		c3.3,0,6.6-1.3,9-3.8l51.2-51.2h253.3c24.7,0,44.8-20.1,44.8-44.8V44.8C409.6,20.1,389.5,0,364.8,0L364.8,0z M396.8,224
		c0,17.6-14.4,32-32,32h-256c-1.7,0-3.3,0.7-4.5,1.9l-53.1,53.1v-48.5c0-3.5-2.9-6.4-6.4-6.4c-17.6,0-32-14.4-32-32V44.8
		c0-17.6,14.4-32,32-32h320c17.6,0,32,14.4,32,32V224z M396.8,224"/>
</g>
</svg>
