<?xml version="1.0" encoding="utf-8"?>
<!-- Generator: Adobe Illustrator 19.0.1, SVG Export Plug-In . SVG Version: 6.00 Build 0)  -->
<svg version="1.1" id="Layer_1" xmlns="http://www.w3.org/2000/svg" xmlns:xlink="http://www.w3.org/1999/xlink" x="0px" y="0px"
	 width="199.9px" height="200px" viewBox="0 0 199.9 200" enable-background="new 0 0 199.9 200" xml:space="preserve">
<g>
	<g>
		<defs>
			<rect id="SVGID_1_" y="0" width="199.9" height="200"/>
		</defs>
		<clipPath id="SVGID_2_">
			<use xlink:href="#SVGID_1_"  overflow="visible"/>
		</clipPath>
		<path clip-path="url(#SVGID_2_)" d="M165.4,65.2c-2.7,0-4.8,2.2-4.8,4.8v119.9H9.6v-151H127c2.6,0,4.8-2.1,4.8-4.8
			c0-2.7-2.1-4.8-4.8-4.8H4.8c-2.7,0-4.8,2.1-4.8,4.8v160.6c0,2.7,2.1,4.8,4.8,4.8h160.6c2.6,0,4.8-2.1,4.8-4.8V70
			C170.2,67.4,168.1,65.2,165.4,65.2L165.4,65.2z M165.4,65.2"/>
		<path clip-path="url(#SVGID_2_)" d="M198.1,1.4c-1.9-1.9-4.9-1.9-6.8,0l-127,127L32.8,96.9c-1.9-1.9-4.9-1.9-6.8,0
			c-1.9,1.9-1.9,4.9,0,6.8l34.9,34.9c0.9,0.9,2.2,1.4,3.4,1.4c1.2,0,2.5-0.5,3.4-1.4L198.1,8.2C200,6.3,200,3.3,198.1,1.4L198.1,1.4
			z M198.1,1.4"/>
	</g>
</g>
</svg>
