<?xml version="1.0" encoding="utf-8"?>
<!-- Generator: Adobe Illustrator 19.0.1, SVG Export Plug-In . SVG Version: 6.00 Build 0)  -->
<svg version="1.1" id="Layer_1" xmlns="http://www.w3.org/2000/svg" xmlns:xlink="http://www.w3.org/1999/xlink" x="0px" y="0px"
	 width="409.6px" height="103.8px" viewBox="0 0 409.6 103.8" enable-background="new 0 0 409.6 103.8" xml:space="preserve">
<g>
	<path fill="#259FC9" d="M109.9,59.4c0,0.8,0,3.8,0,9.1v9.1l-0.8,1l-0.8-1V35.1h13.2c4.5,0,7.9,1.1,10.2,3.2
		c2.3,2.2,3.5,5.1,3.5,8.9s-1.2,6.7-3.5,8.9c-2.3,2.2-5.7,3.2-10.2,3.2H109.9z M109.6,77.4L109.6,77.4L126,66.3l0,0.1L109.6,77.4z
		 M117,67.7L117,67.7l-7.5,9.6l0,0.1L117,67.7z M115.7,48L115.7,48l-5.9,10.7l0.1,0.1L115.7,48z M115.7,57.8h5.9
		c4.1,0,7.2-1,9.1-2.9c2-2,3-4.5,3-7.5c0-3.1-1-5.7-3-7.7c-2-2-5-2.9-9.2-2.9h-11.7v21.1C110.3,57.8,112.3,57.8,115.7,57.8z
		 M109.9,36.4L109.9,36.4l5.9,11.5l-0.1,0.1L109.9,36.4z M109.9,58.8L109.9,58.8l7,9.2l-0.1,0.1L109.9,58.8z M115.7,48L115.7,48
		l5.5-11.3l0.1,0.1L115.7,48z M115.7,48L115.7,48l13.6,8V56L115.7,48z M115.7,48L115.7,48l12.6,0.2v0.1L115.7,48z M116.8,68
		L116.8,68l4.9-9l0,0L116.8,68z M116.8,68L116.8,68l9.2-1.7v0.1L116.8,68z M121.2,36.7L121.2,36.7l7.1,11.4l0,0.1L121.2,36.7z
		 M126,66.4L126,66.4l-4.2-7l-0.1,0L126,66.4z M126,66.4L126,66.4l0.8-7.7l0,0.1L126,66.4z M126,66.4L126,66.4l3.7-5.5l0,0.1
		L126,66.4z M129.8,60.9L129.8,60.9l-2.9-2.3l0,0.1L129.8,60.9z M128.3,48.2L128.3,48.2l5.5-5.5l0,0.1L128.3,48.2z M128.3,48.2
		L128.3,48.2l1.6,12.6l-0.1,0.1L128.3,48.2z"/>
	<path fill="#2657A4" d="M167,65.4h-10.3L152,77.9l-1,0.6l-0.7-0.6L166,36.1l1-1l0.9,1l15.7,41.8l-0.8,0.6l-0.9-0.6l-4.7-12.5
		C176.4,65.4,172.9,65.4,167,65.4z M162.8,71.4L162.8,71.4l-11,5.1l0,0.1L162.8,71.4z M151.8,76.5L151.8,76.5l15.7-0.6v0L151.8,76.5
		z M156.7,65.4L156.7,65.4L167.8,76l0,0L156.7,65.4z M167,63.9h9.7l-8.8-23.6l-0.8-2.5h-0.1l-0.8,2.5l-8.8,23.6
		C158.1,63.9,161.3,63.9,167,63.9z M158.8,58.9L158.8,58.9l8.7,5.1l0,0.1L158.8,58.9z M159,58.9L159,58.9l5.8-8.1l0,0L159,58.9z
		 M159,58.9L159,58.9l9.2-2.2v0L159,58.9z M162.8,47.6L162.8,47.6l2.1,3.3l-0.1,0L162.8,47.6z M162.8,71.4L162.8,71.4l4.8-6l0.1,0.1
		L162.8,71.4z M169.8,71.7L169.8,71.7l-7-0.4v0.1L169.8,71.7z M164.8,50.9L164.8,50.9l3.3-3.1l0,0L164.8,50.9z M164.8,50.9
		L164.8,50.9l3.2,5.9l0,0L164.8,50.9z M167.3,64.1L167.3,64.1l0.7-7.3l0.1,0L167.3,64.1z M167.5,76L167.5,76l14.3,0.2v0.1L167.5,76z
		 M167.7,76L167.7,76l2-4.4l0,0.1L167.7,76z M169.8,71.7L169.8,71.7l-2-6.3l0,0.1L169.8,71.7z M168.1,56.8L168.1,56.8l5.8-1.6l0,0.1
		L168.1,56.8z M168.1,47.8L168.1,47.8l0.1-7.9l-0.1,0.1V47.8z M168.1,56.8L168.1,56.8l0.1-9l-0.1,0V56.8z M168.1,47.8L168.1,47.8
		l5.9,7.4l0,0.1L168.1,47.8z M168.1,56.8L168.1,56.8l8.1,7.6l0,0.1L168.1,56.8z M169.8,71.7L169.8,71.7l8.8-2.6l0,0L169.8,71.7z
		 M169.8,71.7L169.8,71.7l11.7,4.5v0.1L169.8,71.7z"/>
	<path fill="#2E2C72" d="M212.7,77h11l0.6,0.8l-0.6,0.8h-23.6V35.8l0.8-0.7l0.8,0.7V77C202.6,77,206.2,77,212.7,77z M204.9,49
		L204.9,49l-4.2-8.7l0,0.1L204.9,49z M201,77.5L201,77.5l5.3-9.1l0,0.1L201,77.5z M210.2,43L210.2,43l-9.2-7l0,0.1L210.2,43z
		 M206.3,68.4L206.3,68.4l-5.3-9l0,0L206.3,68.4z M201.4,41.9L201.4,41.9l8.8,1V43L201.4,41.9z M201.6,54.3L201.6,54.3l3.3-5.3
		l0,0.1L201.6,54.3z M201.6,54.3L201.6,54.3l9.5,4.2l0,0.1L201.6,54.3z M201.7,36.1L201.7,36.1l13.8,0.8V37L201.7,36.1z M215.4,37
		L215.4,37l-10.5,12l0,0.1L215.4,37z M204.9,49L204.9,49l14.5,0.5v0.1L204.9,49z M204.9,49L204.9,49l6.3,9.4l0,0.1L204.9,49z
		 M212.7,55L212.7,55l-7.7-6.1l0,0.1L212.7,55z M206.3,68.4L206.3,68.4l4.8-10l0.1,0.1L206.3,68.4z M206.3,68.4L206.3,68.4l7.2,8.5
		l-0.1,0.1L206.3,68.4z M218.1,70.8L218.1,70.8l-11.7-2.5l0,0.1L218.1,70.8z M210.2,43L210.2,43l9.3,6.5l0,0.1L210.2,43z
		 M211.2,58.5L211.2,58.5l1.5-3.6l0,0.1L211.2,58.5z M211.2,58.5L211.2,58.5l7,12.3l-0.1,0L211.2,58.5z M211.2,58.5L211.2,58.5
		l8.2,1.8v0.1L211.2,58.5z M219.4,49.6L219.4,49.6l-6.7,5.3l0,0.1L219.4,49.6z M212.7,55L212.7,55l6.7,5.3l0,0.1L212.7,55z
		 M213.5,77.5L213.5,77.5l4.5-6.7l0,0L213.5,77.5z M219.4,49.6L219.4,49.6l-3.9-12.7l-0.1,0.1L219.4,49.6z M219.4,60.4L219.4,60.4
		L218,70.8l0.1,0L219.4,60.4z M218.1,70.8L218.1,70.8l5.2,6.5l0,0.1L218.1,70.8z M219.4,49.6L219.4,49.6l-0.1,10.8l0.1,0.1V49.6z"/>
	<path fill="#DE2B89" d="M257.4,65.4h-10.3l-4.7,12.5l-1,0.6l-0.7-0.6l15.7-41.8l1-1l0.9,1L274,77.9l-0.8,0.6l-0.9-0.6l-4.7-12.5
		C266.8,65.4,263.4,65.4,257.4,65.4z M253.2,71.4L253.2,71.4l-11,5.1l0,0.1L253.2,71.4z M242.2,76.5L242.2,76.5l15.7-0.6v0
		L242.2,76.5z M247.1,65.4L247.1,65.4L258.2,76l0,0L247.1,65.4z M257.4,63.9h9.7l-8.8-23.6l-0.8-2.5h-0.1l-0.8,2.5l-8.8,23.6
		C248.5,63.9,251.7,63.9,257.4,63.9z M249.2,58.9L249.2,58.9l8.7,5.1l0,0.1L249.2,58.9z M249.4,58.9L249.4,58.9l5.8-8.1l0,0
		L249.4,58.9z M249.4,58.9L249.4,58.9l9.2-2.2v0L249.4,58.9z M253.2,47.6L253.2,47.6l2.1,3.3l-0.1,0L253.2,47.6z M253.2,71.4
		L253.2,71.4l4.8-6l0.1,0.1L253.2,71.4z M260.2,71.7L260.2,71.7l-7-0.4v0.1L260.2,71.7z M255.2,50.9L255.2,50.9l3.3-3.1l0,0
		L255.2,50.9z M255.2,50.9L255.2,50.9l3.2,5.9l0,0L255.2,50.9z M257.7,64.1L257.7,64.1l0.7-7.3l0.1,0L257.7,64.1z M257.9,76
		L257.9,76l14.3,0.2v0.1L257.9,76z M258.1,76L258.1,76l2-4.4l0,0.1L258.1,76z M260.2,71.7L260.2,71.7l-2-6.3l0,0.1L260.2,71.7z
		 M258.5,56.8L258.5,56.8l5.8-1.6l0,0.1L258.5,56.8z M258.5,47.8L258.5,47.8l0.1-7.9l-0.1,0.1V47.8z M258.5,56.8L258.5,56.8l0.1-9
		l-0.1,0V56.8z M258.5,47.8L258.5,47.8l5.9,7.4l0,0.1L258.5,47.8z M258.5,56.8L258.5,56.8l8.1,7.6l0,0.1L258.5,56.8z M260.2,71.7
		L260.2,71.7l8.8-2.6l0,0L260.2,71.7z M260.2,71.7L260.2,71.7l11.7,4.5v0.1L260.2,71.7z"/>
	<path fill="#DF3527" d="M302.1,74.8l0.4,1.2h0.1l0.8-2.4l13.9-37.4l1.1-1.1l0.6,1.1l-15.5,41.4l-0.9,1l-0.9-1l-15.4-41.4l0.6-1.1
		l1,1.1l13.9,37.4C301.8,73.7,301.9,74.1,302.1,74.8z M288.1,37L288.1,37l13.5,2.9l0,0.1L288.1,37z M294.3,53.6L294.3,53.6l7.2-13.7
		l0,0.1L294.3,53.6z M294.3,53.6L294.3,53.6l16.4,0.1v0.1L294.3,53.6z M310.7,53.8L310.7,53.8l-12.4,11.4l0,0L310.7,53.8z
		 M301.5,40.1L301.5,40.1l16.4-3.9v0.1L301.5,40.1z M301.5,40.1L301.5,40.1l9.7,14.3l-0.1,0.1L301.5,40.1z M301.5,40.1L301.5,40.1
		l13.1,4.8v0.1L301.5,40.1z"/>
	<path fill="#E56325" d="M335.1,67.5v9.9l-0.9,1.2l-0.7-1.2V35.1H347c4.6,0,8,0.9,10.4,2.8c2.3,1.9,3.5,4.7,3.5,8.5
		c0,2.4-0.7,4.6-2.2,6.5c-1.5,1.9-3.5,3.2-6.1,3.7l-1.2,0.4c0.6,1.3,2.4,4.7,5.4,10.1c3,5.4,4.7,8.7,5.2,9.8v1.5l-1.3-0.7
		c-0.7-1.1-2.6-4.5-5.7-10.2l-5.5-10l-0.1-0.1h0c-0.2,0-0.7,0-1.5,0h-12.9C335.1,58.4,335.1,61.7,335.1,67.5z M334.3,39.2
		L334.3,39.2l4.6,7.3l-0.1,0.1L334.3,39.2z M339.7,65.9L339.7,65.9l-5.3,10.2l0.1,0.1L339.7,65.9z M334.5,76.2L334.5,76.2l22.5-5.8
		v0.1L334.5,76.2z M340.9,56h5.8c4.4,0,7.6-0.9,9.6-2.7c2-1.8,3-4.1,3-6.8c0-3.2-1-5.7-3-7.3c-2-1.6-5.1-2.5-9.3-2.5h-11.9V56
		C335.6,56,337.5,56,340.9,56z M338.8,46.6L338.8,46.6l-3.6,10.2l0.1,0.1L338.8,46.6z M335.3,56.9L335.3,56.9l4.5,9l-0.1,0.1
		L335.3,56.9z M338.8,46.6L338.8,46.6l7.1-10.9l0,0L338.8,46.6z M338.8,46.6L338.8,46.6l19.7-6.4l0,0.1L338.8,46.6z M338.8,46.6
		L338.8,46.6l10.6,9.9l0,0L338.8,46.6z M339.7,65.9L339.7,65.9l13.2-3.3l0,0L339.7,65.9z M339.7,65.9L339.7,65.9l18,4.8l0,0
		L339.7,65.9z M358.5,40.3L358.5,40.3l-9.9,16.2l0,0L358.5,40.3z"/>
	<path fill="#F2AD1D" d="M393,65.4h-10.3L378,77.9l-1,0.6l-0.7-0.6L392,36.1l1-1l0.9,1l15.7,41.8l-0.8,0.6l-0.9-0.6l-4.7-12.5
		C402.4,65.4,399,65.4,393,65.4z M388.8,71.4L388.8,71.4l-11,5.1l0,0.1L388.8,71.4z M377.8,76.5L377.8,76.5l15.7-0.6v0L377.8,76.5z
		 M382.7,65.4L382.7,65.4L393.8,76l0,0L382.7,65.4z M393,63.9h9.7l-8.8-23.6l-0.8-2.5h-0.1l-0.8,2.5l-8.8,23.6
		C384.1,63.9,387.3,63.9,393,63.9z M384.8,58.9L384.8,58.9l8.7,5.1l0,0.1L384.8,58.9z M385,58.9L385,58.9l5.8-8.1l0,0L385,58.9z
		 M385,58.9L385,58.9l9.2-2.2v0L385,58.9z M388.8,47.6L388.8,47.6l2.1,3.3l-0.1,0L388.8,47.6z M388.8,71.4L388.8,71.4l4.8-6l0.1,0.1
		L388.8,71.4z M395.8,71.7L395.8,71.7l-7-0.4v0.1L395.8,71.7z M390.8,50.9L390.8,50.9l3.3-3.1l0,0L390.8,50.9z M390.8,50.9
		L390.8,50.9l3.2,5.9l0,0L390.8,50.9z M393.3,64.1L393.3,64.1l0.7-7.3l0.1,0L393.3,64.1z M393.5,76L393.5,76l14.3,0.2v0.1L393.5,76z
		 M393.7,76L393.7,76l2-4.4l0,0.1L393.7,76z M395.8,71.7L395.8,71.7l-2-6.3l0,0.1L395.8,71.7z M394.1,56.8L394.1,56.8l5.8-1.6l0,0.1
		L394.1,56.8z M394.1,47.8L394.1,47.8l0.1-7.9l-0.1,0.1V47.8z M394.1,56.8L394.1,56.8l0.1-9l-0.1,0V56.8z M394.1,47.8L394.1,47.8
		l5.9,7.4l0,0.1L394.1,47.8z M394.1,56.8L394.1,56.8l8.1,7.6l0,0.1L394.1,56.8z M395.8,71.7L395.8,71.7l8.8-2.6l0,0L395.8,71.7z
		 M395.8,71.7L395.8,71.7l11.7,4.5v0.1L395.8,71.7z"/>
	<polygon fill="#8EBE3F" points="111,103.7 111,92.5 108.6,92.5 108.6,91.8 114.2,91.8 114.2,92.5 111.8,92.5 111.8,103.7 	"/>
	<path fill="#8EBE3F" d="M119.9,94.7c0-1.7,0.8-3,2.6-3c1.8,0,2.6,1.3,2.6,3v6.1c0,1.7-0.8,3-2.6,3c-1.8,0-2.6-1.3-2.6-3V94.7z
		 M120.7,100.9c0,1.3,0.5,2.2,1.8,2.2c1.3,0,1.9-1,1.9-2.2v-6.2c0-1.3-0.5-2.2-1.9-2.2c-1.3,0-1.8,1-1.8,2.2V100.9z"/>
	<path fill="#8EBE3F" d="M133.8,91.8c1.8,0,2.6,1.2,2.6,3v6c0,1.8-0.8,3-2.6,3h-2.6V91.8H133.8z M133.8,103c1.3,0,1.9-0.9,1.9-2.2
		v-6.1c0-1.3-0.6-2.2-1.9-2.2h-1.8V103H133.8z"/>
	<path fill="#8EBE3F" d="M142.4,94.7c0-1.7,0.8-3,2.6-3c1.8,0,2.6,1.3,2.6,3v6.1c0,1.7-0.8,3-2.6,3c-1.8,0-2.6-1.3-2.6-3V94.7z
		 M143.2,100.9c0,1.3,0.5,2.2,1.8,2.2c1.3,0,1.9-1,1.9-2.2v-6.2c0-1.3-0.5-2.2-1.9-2.2c-1.3,0-1.8,1-1.8,2.2V100.9z"/>
	<polygon fill="#8EBE3F" points="165.1,103.7 164.3,103.7 161.8,93.2 161.8,103.7 161.1,103.7 161.1,91.8 162.2,91.8 164.7,102.4 
		167.2,91.8 168.3,91.8 168.3,103.7 167.6,103.7 167.6,93.2 	"/>
	<path fill="#8EBE3F" d="M175.2,100.9c0,1.3,0.5,2.3,1.8,2.3s1.8-1,1.8-2.3v-9h0.7v9c0,1.7-0.7,3-2.5,3c-1.8,0-2.5-1.3-2.5-3v-9h0.8
		V100.9z"/>
	<polygon fill="#8EBE3F" points="186.3,103.7 185.6,103.7 185.6,91.8 186.6,91.8 190.2,101.9 190.2,91.8 190.9,91.8 190.9,103.7 
		190.1,103.7 186.3,93.1 	"/>
	<path fill="#8EBE3F" d="M199.6,91.8c1.8,0,2.6,1.2,2.6,3v6c0,1.8-0.8,3-2.6,3H197V91.8H199.6z M199.6,103c1.3,0,1.9-0.9,1.9-2.2
		v-6.1c0-1.3-0.6-2.2-1.9-2.2h-1.8V103H199.6z"/>
	<path fill="#8EBE3F" d="M208.3,94.7c0-1.7,0.8-3,2.6-3c1.8,0,2.6,1.3,2.6,3v6.1c0,1.7-0.8,3-2.6,3c-1.8,0-2.6-1.3-2.6-3V94.7z
		 M209.1,100.9c0,1.3,0.5,2.2,1.8,2.2c1.3,0,1.9-1,1.9-2.2v-6.2c0-1.3-0.5-2.2-1.9-2.2c-1.3,0-1.8,1-1.8,2.2V100.9z"/>
	<path fill="#8EBE3F" d="M229.4,91.8c1.8,0,2.5,1.2,2.5,2.9V96c0,1.9-0.9,2.8-2.8,2.8h-1.5v4.9H227V91.8H229.4z M229.2,98.1
		c1.4,0,2-0.6,2-2.1v-1.4c0-1.3-0.4-2.1-1.8-2.1h-1.7v5.6H229.2z"/>
	<path fill="#8EBE3F" d="M237.9,94.7c0-1.7,0.8-3,2.6-3c1.8,0,2.6,1.3,2.6,3v6.1c0,1.7-0.8,3-2.6,3c-1.8,0-2.6-1.3-2.6-3V94.7z
		 M238.7,100.9c0,1.3,0.5,2.2,1.8,2.2c1.3,0,1.9-1,1.9-2.2v-6.2c0-1.3-0.5-2.2-1.9-2.2c-1.3,0-1.8,1-1.8,2.2V100.9z"/>
	<path fill="#8EBE3F" d="M251.8,91.8c1.8,0,2.6,1.2,2.6,3v6c0,1.8-0.8,3-2.6,3h-2.6V91.8H251.8z M251.8,103c1.3,0,1.9-0.9,1.9-2.2
		v-6.1c0-1.3-0.6-2.2-1.9-2.2H250V103H251.8z"/>
	<polygon fill="#8EBE3F" points="264.5,97.3 264.5,98.1 261.3,98.1 261.3,103 265.2,103 265.2,103.7 260.5,103.7 260.5,91.8 
		265.2,91.8 265.2,92.5 261.3,92.5 261.3,97.3 	"/>
	<polygon fill="#8EBE3F" points="282.6,97.3 282.6,98.1 279.4,98.1 279.4,103 283.3,103 283.3,103.7 278.6,103.7 278.6,91.8 
		283.3,91.8 283.3,92.5 279.4,92.5 279.4,97.3 	"/>
	<path fill="#8EBE3F" d="M294.3,94.7V95h-0.7v-0.3c0-1.3-0.5-2.2-1.8-2.2s-1.8,0.9-1.8,2.2c0,2.9,4.3,2.9,4.3,6.2c0,1.7-0.7,3-2.6,3
		c-1.8,0-2.6-1.3-2.6-3v-0.6h0.7v0.7c0,1.3,0.5,2.2,1.8,2.2c1.3,0,1.8-0.9,1.8-2.2c0-2.9-4.3-2.9-4.3-6.2c0-1.8,0.8-2.9,2.5-3
		C293.6,91.7,294.3,93,294.3,94.7z"/>
	<path fill="#8EBE3F" d="M305.5,94.7v1h-0.7v-1c0-1.3-0.5-2.2-1.8-2.2s-1.8,1-1.8,2.2v6.2c0,1.3,0.5,2.2,1.8,2.2s1.8-1,1.8-2.2v-1.4
		h0.7v1.4c0,1.7-0.7,3-2.6,3c-1.8,0-2.6-1.3-2.6-3v-6.1c0-1.7,0.7-3,2.6-3C304.7,91.7,305.5,93,305.5,94.7z"/>
	<path fill="#8EBE3F" d="M314,91.8c1.8,0,2.5,1,2.5,2.7v1c0,1.4-0.5,2.2-1.7,2.5c1.2,0.3,1.7,1.1,1.7,2.4v1.9c0,0.5,0,1,0.3,1.4H316
		c-0.2-0.4-0.3-0.8-0.3-1.4v-1.9c0-1.6-0.9-2-2.2-2h-1.2v5.3h-0.8V91.8H314z M313.6,97.7c1.4,0,2.2-0.4,2.2-2v-1.1
		c0-1.3-0.5-2-1.8-2h-1.7v5.2H313.6z"/>
	<polygon fill="#8EBE3F" points="326.9,97.3 326.9,98.1 323.6,98.1 323.6,103 327.5,103 327.5,103.7 322.8,103.7 322.8,91.8 
		327.5,91.8 327.5,92.5 323.6,92.5 323.6,97.3 	"/>
	<polygon fill="#8EBE3F" points="334.2,91.8 336.6,102.8 339,91.8 339.8,91.8 337.2,103.7 336,103.7 333.4,91.8 	"/>
	<polygon fill="#8EBE3F" points="349.7,97.3 349.7,98.1 346.5,98.1 346.5,103 350.4,103 350.4,103.7 345.7,103.7 345.7,91.8 
		350.4,91.8 350.4,92.5 346.5,92.5 346.5,97.3 	"/>
	<path fill="#8EBE3F" d="M358.9,91.8c1.8,0,2.5,1,2.5,2.7v1c0,1.4-0.5,2.2-1.7,2.5c1.2,0.3,1.7,1.1,1.7,2.4v1.9c0,0.5,0,1,0.3,1.4
		h-0.8c-0.2-0.4-0.3-0.8-0.3-1.4v-1.9c0-1.6-0.9-2-2.2-2h-1.2v5.3h-0.8V91.8H358.9z M358.5,97.7c1.4,0,2.2-0.4,2.2-2v-1.1
		c0-1.3-0.5-2-1.8-2h-1.7v5.2H358.5z"/>
	<path fill="#DE2B89" d="M115.8,13.1h-6.6v12.2h15l0.5,0.5l-0.5,0.4h-16V0h16l0.5,0.5L124.2,1h-15v11.1h13.1l0.4,0.5l-0.4,0.5
		C121.9,13.1,119.7,13.1,115.8,13.1z M108.8,12.7L108.8,12.7l4.2-4.9l0.1,0.1L108.8,12.7z M109,1.6L109,1.6l4,6.2l0,0.1L109,1.6z
		 M113.1,20.1L113.1,20.1l-4-6.9l0,0.1L113.1,20.1z M113.1,20.1L113.1,20.1l-3,5.6l0.1,0.1L113.1,20.1z M113.1,7.8L113.1,7.8
		l2.6-6.9l0.1,0.1L113.1,7.8z M113.1,20.1L113.1,20.1l5.2-7.1l0,0.1L113.1,20.1z M113.1,7.8L113.1,7.8l6.9-0.5l0,0.1L113.1,7.8z
		 M113.1,20.1L113.1,20.1l7.4-3.2l0,0.1L113.1,20.1z M113.1,7.8L113.1,7.8l5.3,4.6l0,0L113.1,7.8z M113.1,20.1L113.1,20.1l4.1,5.5
		l0,0.1L113.1,20.1z M113.1,20.1L113.1,20.1l5.6,0.1v0.1L113.1,20.1z M115.7,1L115.7,1l4.3,6.4l0,0.1L115.7,1z M118.7,20.3
		L118.7,20.3l-1.6,5.3l0.1,0.1L118.7,20.3z M119.9,7.4L119.9,7.4l-1.7,5l0.1,0L119.9,7.4z M118.3,13.1L118.3,13.1l2.2,3.8l0,0.1
		L118.3,13.1z M120.5,16.9L120.5,16.9l-1.9,3.3l0.1,0.1L120.5,16.9z M118.7,20.3L118.7,20.3l5.2,5.3l0,0.1L118.7,20.3z M119.9,7.4
		L119.9,7.4l4.3-6.8l0,0.1L119.9,7.4z M120.5,16.9L120.5,16.9l3.4,8.8l0,0.1L120.5,16.9z"/>
	<path fill="#DD3326" d="M150.1,15.9c-1.1-0.9-3.2-1.8-6.1-2.6c-3-0.8-5.1-1.7-6.4-2.7c-1.3-1-2-2.4-2-4.4c0-1.9,0.8-3.5,2.3-4.6
		c1.6-1.1,3.6-1.7,6.1-1.7c2.5,0,4.6,0.7,6.1,2.1c1.6,1.4,2.3,3.2,2.3,5.5l-0.5,0.5l-0.5-0.5c0-1.9-0.7-3.5-2.1-4.8S146.3,1,144,1
		c-2.4,0-4.2,0.5-5.5,1.5c-1.3,1-2,2.3-2,3.7c0,1.5,0.5,2.7,1.6,3.6c1.1,0.9,3.1,1.8,6.1,2.5c2.9,0.8,5,1.7,6.4,2.7
		c1.4,1.1,2.1,2.6,2.1,4.6s-0.8,3.6-2.4,4.8c-1.6,1.1-3.7,1.7-6.2,1.7c-2.6,0-4.8-0.6-6.6-1.8c-1.8-1.2-2.8-3.1-2.8-5.8l0.5-0.5
		l0.5,0.5c0,2.4,0.8,4,2.5,5.1c1.7,1,3.7,1.5,5.9,1.5c2.3,0,4.1-0.5,5.5-1.5c1.4-1,2.1-2.3,2.1-4C151.9,18.1,151.3,16.9,150.1,15.9z
		 M135.5,19.9L135.5,19.9l12-5.5l0,0.1L135.5,19.9z M135.8,19.7L135.8,19.7l8,5.7l0,0L135.8,19.7z M137.2,9.6L137.2,9.6l13-6.1
		l0,0.1L137.2,9.6z M137.6,9.3L137.6,9.3l8.2,0.6V10L137.6,9.3z M140.3,1.2L140.3,1.2l10.4,2.2v0.1L140.3,1.2z M147.5,14.5
		L147.5,14.5l-3.7,10.9l0,0L147.5,14.5z M143.8,25.4L143.8,25.4l7.6-9.4l0,0.1L143.8,25.4z M145.9,10L145.9,10l4.3-6.6l0.1,0.1
		L145.9,10z M145.9,10L145.9,10l0.5,3.1l0,0.1L145.9,10z M146.3,13.1L146.3,13.1l4.7-3.5l0,0.1L146.3,13.1z M151.1,9.7L151.1,9.7
		l-0.8-6.2l0,0.1L151.1,9.7z M151.1,9.7L151.1,9.7l0.4,6.4l-0.1,0.1L151.1,9.7z"/>
	<path fill="#E56225" d="M163.9,14.6c0,0.5,0,2.3,0,5.5v5.5l-0.5,0.6l-0.5-0.6V0h8c2.7,0,4.8,0.7,6.2,2c1.4,1.3,2.1,3.1,2.1,5.4
		s-0.7,4.1-2.1,5.4c-1.4,1.3-3.5,1.9-6.2,1.9H163.9z M163.7,25.5L163.7,25.5l9.9-6.7l0,0.1L163.7,25.5z M168.2,19.7L168.2,19.7
		l-4.5,5.8l0,0.1L168.2,19.7z M167.4,7.8L167.4,7.8l-3.5,6.5l0.1,0.1L167.4,7.8z M167.4,13.7h3.5c2.5,0,4.3-0.6,5.5-1.8
		c1.2-1.2,1.8-2.7,1.8-4.5c0-1.9-0.6-3.4-1.8-4.6c-1.2-1.2-3-1.8-5.5-1.8h-7v12.7C164.2,13.7,165.3,13.7,167.4,13.7z M163.9,0.8
		L163.9,0.8l3.5,6.9l-0.1,0.1L163.9,0.8z M163.9,14.3L163.9,14.3l4.2,5.5l-0.1,0.1L163.9,14.3z M167.4,7.8L167.4,7.8l3.3-6.8
		l0.1,0.1L167.4,7.8z M167.4,7.8L167.4,7.8l8.2,4.8v0.1L167.4,7.8z M167.4,7.8L167.4,7.8l7.6,0.1v0.1L167.4,7.8z M168.1,19.9
		L168.1,19.9l2.9-5.5l0,0L168.1,19.9z M168.1,19.9L168.1,19.9l5.6-1v0.1L168.1,19.9z M170.8,1L170.8,1l4.3,6.9l0,0.1L170.8,1z
		 M173.6,18.9L173.6,18.9l-2.6-4.3l-0.1,0L173.6,18.9z M173.6,18.9L173.6,18.9l0.5-4.6l0,0.1L173.6,18.9z M173.6,18.9L173.6,18.9
		l2.3-3.3l0,0.1L173.6,18.9z M175.9,15.6L175.9,15.6l-1.8-1.4l0,0.1L175.9,15.6z M175,7.9L175,7.9l3.3-3.3l0,0.1L175,7.9z M175,7.9
		L175,7.9l0.9,7.6l-0.1,0.1L175,7.9z"/>
	<path fill="#F2AD1D" d="M198.3,18.3h-6.2l-2.8,7.5l-0.6,0.4l-0.4-0.4l9.4-25.3l0.6-0.6l0.6,0.6l9.5,25.3l-0.5,0.4l-0.5-0.4
		l-2.8-7.5C204,18.3,202,18.3,198.3,18.3z M195.8,21.9L195.8,21.9l-6.7,3l0,0.1L195.8,21.9z M189.2,25L189.2,25l9.5-0.3v0L189.2,25z
		 M192.1,18.3L192.1,18.3l6.7,6.4l0,0L192.1,18.3z M198.3,17.4h5.8l-5.3-14.2l-0.5-1.5h-0.1l-0.5,1.5l-5.3,14.2
		C193,17.4,194.9,17.4,198.3,17.4z M193.4,14.4L193.4,14.4l5.2,3.1l0,0.1L193.4,14.4z M193.5,14.4L193.5,14.4l3.5-4.9l0,0
		L193.5,14.4z M193.5,14.4L193.5,14.4l5.5-1.3v0L193.5,14.4z M195.8,7.6L195.8,7.6l1.3,2l-0.1,0L195.8,7.6z M195.8,21.9L195.8,21.9
		l2.9-3.6l0.1,0.1L195.8,21.9z M200,22.1L200,22.1l-4.2-0.2v0.1L200,22.1z M197.1,9.6L197.1,9.6l2-1.9l0,0L197.1,9.6z M197.1,9.6
		L197.1,9.6l1.9,3.5l0,0L197.1,9.6z M198.6,17.5L198.6,17.5l0.4-4.4l0.1,0L198.6,17.5z M198.7,24.7L198.7,24.7l8.6,0.1v0.1
		L198.7,24.7z M198.8,24.7L198.8,24.7L200,22l0,0.1L198.8,24.7z M200,22.1L200,22.1l-1.2-3.8l0,0.1L200,22.1z M199.1,13.1
		L199.1,13.1l3.5-0.9l0,0.1L199.1,13.1z M199.1,7.7L199.1,7.7l0.1-4.8L199.1,3V7.7z M199.1,13.1L199.1,13.1l0.1-5.5l-0.1,0V13.1z
		 M199.1,7.7L199.1,7.7l3.6,4.5l0,0.1L199.1,7.7z M199.1,13.1L199.1,13.1l4.9,4.6l0,0.1L199.1,13.1z M200,22.1L200,22.1l5.3-1.6l0,0
		L200,22.1z M200,22.1L200,22.1l7.1,2.7v0.1L200,22.1z"/>
	<path fill="#8FBF3F" d="M260.9,23.2c-2,2-4.6,3-8,3c-3.4,0-6-1-8-3c-2-2-2.9-4.8-2.9-8.2v-3.8c0-3.4,1-6.1,2.9-8.2c1.9-2,4.6-3,8-3
		s6,1,8,3c2,2,2.9,4.8,2.9,8.2V15C263.8,18.4,262.8,21.2,260.9,23.2z M246.6,13.6L246.6,13.6l-3.6-4.4l0,0L246.6,13.6z M262.7,11.2
		c0-3.1-0.9-5.6-2.6-7.5c-1.7-1.9-4.2-2.8-7.3-2.8s-5.5,0.9-7.2,2.8c-1.7,1.9-2.6,4.3-2.6,7.5V15c0,3.1,0.9,5.6,2.6,7.5
		c1.7,1.9,4.1,2.8,7.3,2.8s5.5-0.9,7.3-2.8c1.7-1.9,2.6-4.4,2.6-7.5V11.2z M243.1,16.5L243.1,16.5l3.4-2.9l0.1,0.1L243.1,16.5z
		 M243.1,16.5L243.1,16.5l8.5,0.7v0L243.1,16.5z M245.2,4.2L245.2,4.2l5.2,1.5v0.1L245.2,4.2z M250.4,5.8L250.4,5.8l-3.9,7.7
		l0.1,0.1L250.4,5.8z M246.6,13.6L246.6,13.6l5.1,3.6l0,0L246.6,13.6z M251.6,17.2L251.6,17.2l-1.3,7.9l0.1,0.1L251.6,17.2z
		 M250.4,5.8L250.4,5.8l3.7-4.8l0.1,0.1L250.4,5.8z M250.4,5.8L250.4,5.8l9.7-2.1l0,0.1L250.4,5.8z M250.4,5.8L250.4,5.8l12.8,3.4
		l0,0L250.4,5.8z M253.7,13.1L253.7,13.1l-3.3-7.4l0,0.1L253.7,13.1z M251.6,17.2L251.6,17.2l2-4.1l0.1,0.1L251.6,17.2z M251.6,17.2
		L251.6,17.2l4.8,7.6l0,0.1L251.6,17.2z M251.6,17.2L251.6,17.2l5.2,2.6v0.1L251.6,17.2z M253.7,13.1L253.7,13.1l9.5-4v0L253.7,13.1
		z M256.8,19.8L256.8,19.8l-3.1-6.7l0,0.1L256.8,19.8z M256.8,19.8L256.8,19.8l-0.5,5l0.1,0.1L256.8,19.8z M263.2,9.2L263.2,9.2
		l-6.4,10.6l0.1,0.1L263.2,9.2z M256.8,19.8L256.8,19.8l5.8-2.7v0L256.8,19.8z M256.8,19.8L256.8,19.8l2.6,3.9l0,0.1L256.8,19.8z"/>
	<path fill="#359445" d="M298.4,13.1V0h7.2c1.6,0,3,0.3,4.3,0.8c1.3,0.6,2.5,1.3,3.4,2.4c1,1,1.7,2.2,2.3,3.6c0.5,1.4,0.8,3,0.8,4.7
		v3.2c0,1.7-0.3,3.2-0.8,4.7c-0.5,1.4-1.3,2.6-2.3,3.6c-1,1-2.1,1.8-3.4,2.4c-1.3,0.6-2.8,0.8-4.3,0.8h-7.2
		C298.4,25.2,298.4,20.8,298.4,13.1z M299.1,1.8L299.1,1.8l6.6,5l0,0.1L299.1,1.8z M299.1,10.2L299.1,10.2l3.9,10.1l0,0.1
		L299.1,10.2z M299.3,10.5L299.3,10.5l6.4-3.7l0,0.1L299.3,10.5z M299.3,10.5L299.3,10.5l11.5,2.2v0L299.3,10.5z M299.4,1
		c0,1,0,5.1,0,12.1v12.1h6.3c1.4,0,2.7-0.3,3.9-0.8c1.2-0.5,2.2-1.2,3.1-2.2c0.9-0.9,1.6-2,2.1-3.3c0.5-1.3,0.7-2.7,0.7-4.2v-3.3
		c0-1.5-0.2-2.9-0.7-4.2c-0.5-1.3-1.2-2.4-2.1-3.3c-0.9-0.9-1.9-1.6-3.1-2.2C308.4,1.3,307,1,305.6,1H299.4z M303,20.3L303,20.3
		l-3,5.5l0.1,0.1L303,20.3z M303,20.3L303,20.3l7.8-7.6l0,0L303,20.3z M303,20.3L303,20.3l7.4-2.4V18L303,20.3z M303,20.3L303,20.3
		l5.6,5.2l0,0L303,20.3z M305.7,6.9L305.7,6.9l3.6-5.8l0,0.1L305.7,6.9z M305.7,6.9L305.7,6.9l5.1,5.8l0,0L305.7,6.9z M305.7,6.9
		L305.7,6.9l6.7,0.6v0L305.7,6.9z M310.4,18L310.4,18l-1.8,7.6l0,0L310.4,18z M309.1,1.3L309.1,1.3l3.4,6.2l-0.1,0L309.1,1.3z
		 M310.4,18L310.4,18l0.3-5.2l0.1,0L310.4,18z M310.4,18L310.4,18l2.5-2.5l0,0.1L310.4,18z M310.4,18L310.4,18l4.8,0.8v0.1L310.4,18
		z M310.8,12.8L310.8,12.8l1.6-5.2l0,0L310.8,12.8z M310.8,12.8L310.8,12.8l2.2,2.7l0,0.1L310.8,12.8z M312.4,7.6L312.4,7.6l2-2.2
		l0,0.1L312.4,7.6z M312.4,7.6L312.4,7.6l3.5,8.7l-0.1,0.1L312.4,7.6z M312.4,7.6L312.4,7.6l3.5,2l0,0L312.4,7.6z M313,15.5
		L313,15.5l2.9,0.5v0L313,15.5z"/>
	<path fill="#309B78" d="M334.7,18.3h-6.2l-2.8,7.5l-0.6,0.4l-0.4-0.4l9.4-25.3l0.6-0.6l0.6,0.6l9.5,25.3l-0.5,0.4l-0.5-0.4
		l-2.8-7.5C340.4,18.3,338.3,18.3,334.7,18.3z M332.2,21.9L332.2,21.9l-6.7,3l0,0.1L332.2,21.9z M325.6,25L325.6,25l9.5-0.3v0
		L325.6,25z M328.5,18.3L328.5,18.3l6.7,6.4l0,0L328.5,18.3z M334.7,17.4h5.8l-5.3-14.2l-0.5-1.5h-0.1l-0.5,1.5l-5.3,14.2
		C329.3,17.4,331.3,17.4,334.7,17.4z M329.8,14.4L329.8,14.4l5.2,3.1l0,0.1L329.8,14.4z M329.9,14.4L329.9,14.4l3.5-4.9l0,0
		L329.9,14.4z M329.9,14.4L329.9,14.4l5.5-1.3v0L329.9,14.4z M332.2,7.6L332.2,7.6l1.3,2l-0.1,0L332.2,7.6z M332.2,21.9L332.2,21.9
		l2.9-3.6l0.1,0.1L332.2,21.9z M336.4,22.1L336.4,22.1l-4.2-0.2v0.1L336.4,22.1z M333.4,9.6L333.4,9.6l2-1.9l0,0L333.4,9.6z
		 M333.4,9.6L333.4,9.6l1.9,3.5l0,0L333.4,9.6z M334.9,17.5L334.9,17.5l0.4-4.4l0.1,0L334.9,17.5z M335,24.7L335,24.7l8.6,0.1v0.1
		L335,24.7z M335.2,24.7L335.2,24.7l1.2-2.7l0,0.1L335.2,24.7z M336.4,22.1L336.4,22.1l-1.2-3.8l0,0.1L336.4,22.1z M335.4,13.1
		L335.4,13.1l3.5-0.9l0,0.1L335.4,13.1z M335.4,7.7L335.4,7.7l0.1-4.8L335.4,3V7.7z M335.4,13.1L335.4,13.1l0.1-5.5l-0.1,0V13.1z
		 M335.4,7.7L335.4,7.7l3.6,4.5l0,0.1L335.4,7.7z M335.4,13.1L335.4,13.1l4.9,4.6l0,0.1L335.4,13.1z M336.4,22.1L336.4,22.1l5.3-1.6
		l0,0L336.4,22.1z M336.4,22.1L336.4,22.1l7.1,2.7v0.1L336.4,22.1z"/>
	<path fill="#EDE30F" d="M231,24.8c-1.6,0.9-3.2,1.4-4.6,1.4c-2.9,0-5.1-1-6.8-3c-1.7-2-2.5-4.7-2.5-8.2v-3.8c0-3.4,0.8-6.1,2.5-8.1
		c1.7-2,3.9-3,6.8-3c1.4,0,2.9,0.4,4.4,1.1c1.5,0.7,2.4,1.8,2.6,3.1l-0.1,0.6l-0.6-0.2c-0.2-1.2-1-2.1-2.3-2.7
		c-1.3-0.6-2.6-0.9-4-0.9c-2.5,0-4.6,0.9-6.1,2.8c-1.5,1.8-2.2,4.3-2.2,7.5v3.9c0,3.1,0.7,5.6,2.2,7.5c1.5,1.8,3.5,2.8,6.1,2.8
		c1.3,0,2.6-0.4,3.9-1.2c1.3-0.8,2.4-1.9,3.1-3.5l0.5-0.6l0.2,0.7C233.7,22.5,232.7,23.9,231,24.8z M217.7,11.7L217.7,11.7l3.4,0.8
		v0L217.7,11.7z M217.7,16.5L217.7,16.5l11.1-0.6l0,0.1L217.7,16.5z M217.9,16.5L217.9,16.5l6.5,2.7v0L217.9,16.5z M218,16.5
		L218,16.5l3.1-4l0.1,0L218,16.5z M218.1,7.7L218.1,7.7l6.9-1.3l0,0.1L218.1,7.7z M219.7,22L219.7,22l4.6-2.8l0,0L219.7,22z
		 M221.1,12.5L221.1,12.5l3.9-6.1l0.1,0.1L221.1,12.5z M221.1,12.5L221.1,12.5l7.8,3.4V16L221.1,12.5z M224.3,19.2L224.3,19.2
		l-3.2-6.7l0,0L224.3,19.2z M221.3,2.8L221.3,2.8l3.8,3.7l0,0.1L221.3,2.8z M223.9,25.3L223.9,25.3l0.4-6.1l0.1,0L223.9,25.3z
		 M223.9,25.3L223.9,25.3l2.7-5l0,0.1L223.9,25.3z M224.3,19.2L224.3,19.2l4.5-3.3l0,0.1L224.3,19.2z M224.3,19.2L224.3,19.2
		l2.4,1.1l0,0.1L224.3,19.2z M225,6.5L225,6.5l4.9-5l0,0.1L225,6.5z M225,6.5L225,6.5l7.4-2.8v0.1L225,6.5z M225,6.5L225,6.5
		l3.9,9.4l0,0.1L225,6.5z M225,6.5L225,6.5l4.6,3.2l0,0.1L225,6.5z M226.7,20.4L226.7,20.4l2.2-4.4l0.1,0.1L226.7,20.4z M229.6,25.1
		L229.6,25.1l-2.9-4.8l-0.1,0.1L229.6,25.1z M228.9,16L228.9,16l0.7-6.3l0.1,0.1L228.9,16z M228.9,15.9L228.9,15.9l3.5-2.3l0,0
		L228.9,15.9z M229.6,25.1L229.6,25.1l-0.7-9.2l0,0.1L229.6,25.1z M228.9,16L228.9,16l4.3,2.8v0.1L228.9,16z M229.6,9.8L229.6,9.8
		l2.7-6.1l0,0.1L229.6,9.8z M229.6,25.1L229.6,25.1l3.5-6.3l0.1,0.1L229.6,25.1z M229.6,9.8L229.6,9.8l2.8,3.8l-0.1,0L229.6,9.8z
		 M232.4,13.6L232.4,13.6l0.1-9.9l-0.1,0.1V13.6z M232.4,13.6L232.4,13.6l1.2,7.8l-0.1,0.1L232.4,13.6z"/>
	<path fill="#EDE30F" d="M226.9,25.7v1.7c1.9,0,3.8,0.5,3.8,2.7c0,2.2-2.3,3-4.1,3c-1.9,0-4.2-0.9-4.2-3v-0.2h0.5V30
		c0,1.9,2.2,2.5,3.7,2.6c1.5,0,3.6-0.7,3.6-2.5c0-2-1.9-2.3-3.5-2.3h-0.2v-2.2"/>
	<circle fill="#DD3326" cx="15.1" cy="8" r="2.4"/>
	<path fill="#DD3326" d="M3.1,83.7l25.4-43.5L15.8,9.3l37.6,21.8l24.9,9L53.5,61.9L3.1,83.7 M2.4,85l1.1-0.7l50.4-21.8l24.9-21.8
		l1.1-0.7l-1.1-0.7l-24.9-9L16.2,8.7L15.1,8v1.3l12.7,30.8L2.4,83.7V85z"/>
	<path fill="#DD3326" d="M29,40.1L53.4,32v29L29,40.1 M27.4,40.1l26.7,22.1V30.7L27.4,40.1z"/>
	<circle fill="#DD3326" cx="2.4" cy="85" r="2.4"/>
	<circle fill="#DD3326" cx="54.1" cy="62.3" r="2.4"/>
	<circle fill="#DD3326" cx="28.6" cy="40.1" r="2.4"/>
	<circle fill="#DD3326" cx="53.8" cy="30.4" r="2.4"/>
	<circle fill="#DD3326" cx="77.5" cy="40.2" r="2.4"/>
</g>
</svg>
