<?xml version="1.0" encoding="utf-8"?>
<!-- Generator: Adobe Illustrator 19.0.1, SVG Export Plug-In . SVG Version: 6.00 Build 0)  -->
<svg version="1.1" id="Layer_1" xmlns="http://www.w3.org/2000/svg" xmlns:xlink="http://www.w3.org/1999/xlink" x="0px" y="0px"
	 width="35.7px" height="32.9px" viewBox="0 0 35.7 32.9" enable-background="new 0 0 35.7 32.9" xml:space="preserve">
<g>
	<path fill="#1E201D" d="M9.4,0c2.5,0,4.5,0.8,6.1,2.3c1,0.9,1.8,2.1,2.4,3.5c0.6-1.4,1.4-2.5,2.4-3.5C21.8,0.8,23.8,0,26.3,0
		c2.6,0,4.9,1.1,6.6,2.7c1.7,1.7,2.7,4,2.7,6.6c0,4.4-4.9,9.6-8.3,13.3c-0.6,0.7-1.2,1.3-1.7,1.9l-7.1,8.1c-0.3,0.4-0.9,0.4-1.3,0.1
		c0,0-0.1,0-0.1-0.1L10,24.5c-0.5-0.5-1.1-1.2-1.7-1.9C4.8,19,0,13.8,0,9.4c0-2.6,1.1-4.9,2.7-6.6C4.4,1.1,6.8,0,9.4,0L9.4,0z
		 M14.2,3.6C13,2.4,11.4,1.8,9.4,1.8C7.3,1.8,5.4,2.6,4,4C2.6,5.4,1.8,7.3,1.8,9.4c0,3.7,4.5,8.6,7.8,12.1c0.6,0.7,1.2,1.3,1.8,1.9
		l6.5,7.3l6.5-7.3c0.5-0.5,1.1-1.2,1.8-1.9c3.2-3.5,7.8-8.3,7.8-12.1c0-2.1-0.9-4-2.2-5.3c-1.4-1.4-3.3-2.2-5.4-2.2
		c-2,0-3.6,0.7-4.9,1.8c-1.3,1.2-2.3,3.1-2.7,5.3c-0.1,0.4-0.3,0.6-0.7,0.7c-0.5,0.1-0.9-0.2-1.1-0.7C16.5,6.7,15.6,4.9,14.2,3.6
		L14.2,3.6z M14.2,3.6"/>
</g>
</svg>
