<?xml version="1.0" encoding="utf-8"?>
<!-- Generator: Adobe Illustrator 19.0.1, SVG Export Plug-In . SVG Version: 6.00 Build 0)  -->
<svg version="1.1" id="Camada_1" xmlns="http://www.w3.org/2000/svg" xmlns:xlink="http://www.w3.org/1999/xlink" x="0px" y="0px"
	 width="104.6px" height="141.8px" viewBox="791.2 319.9 104.6 141.8" enable-background="new 791.2 319.9 104.6 141.8"
	 xml:space="preserve">
<path d="M863.4,420.6c-0.9,3.6,0.5,7,1.9,10.4c0.7,1.8,1.1,3.7,1.5,5.6c0.4,1.9-0.7,3.4-1.9,4.6c-0.6,0.6-1.9,1-2.8,0.8
	c-1.9-0.4-3.2,0.1-4.5,1.4c1.6,1.5,1.9,3.3,1.8,5.3c-0.2,3.3-2.4,5.5-4.3,7.8c-2.4,2.9-6.7,2.5-9.3-0.4c-2.3-2.5-0.7-4.9,0.1-7.2
	c0.9-2.8,3.6-4.2,6-5.6c0.5-0.3,1.3-0.1,2-0.1c2-0.1,3.9-0.6,5.5-1.8c0.6-0.4,1.5-0.5,2.2-0.4c2.3,0.1,4.2-1.4,3.9-3.8
	c-0.2-1.8-0.8-3.5-1.4-5.3c-1.1-3.7-3.3-7.2-2.1-11.3c0.1-0.5-0.2-1.3-0.5-1.6c-5.5-3.9-11-7.8-16.7-11.4c-6-3.7-12.1-7.1-18.3-10.6
	c-2.6-1.5-5.4-2.7-8.2-4.1c-0.9-3.2,0.7-7-1.3-10.4c-5.8,2.1-8.9,6.4-10.6,12c1.4,0.9,2.3,2.1,1.6,3.8c-0.2,0.6-1.5,1.4-1.6,1.3
	c-1-0.9-1.9-1.9-3-3c-6.5,4.5-5.8,12.1-7,19.4c2-2.4,3.8-4.4,5.5-6.6c2.7-3.6,2.8-2.8,5.9-0.5c5.3,4,10,8.7,15.3,12.5
	c6.9,5,14.1,9.5,21.2,14.2c0.5,0.4,1.2,0.5,2.1,0.9c-0.1,0.8-0.1,2-0.4,3c-0.2,0.6-1,1.1-1.5,1.6c-0.3,0.3-0.6,0.7-1,1
	c-2.5,2.8-5.1,5.6-7.5,8.5c-2.1,2.5-4.1,5.1-6.1,7.6c-0.9,1-1.7,2.1-2.7,3c-0.4,0.3-1.3,0.4-1.7,0.2c-0.8-0.4-1.6-1.1-2.2-1.8
	c-4.5-5.1-8.8-10.2-13.4-15.2c-2.4-2.7-5.2-5-7.8-7.5c-2.8-2.7-5.8-5.3-8.5-8.1c-2-2-2.4-4.7-2.3-7.4c0-0.2,0.5-0.7,0.7-0.6
	c1.6,0.3,2.1-0.8,2.6-1.8c0.4-0.9,1-1.7,1.1-3c0.6-5.9,0.4-12.1,4.1-17.4c1.1-1.6,2.3-3,4.2-3.7c0.6-0.2,1.1-1,1.4-1.6
	c2.3-5.4,5.6-9.8,11.5-11.8c-0.1-1.2-0.2-2.4-0.3-3.7c3.3,0.2,5.2-2.2,7.7-3.6c1.4-0.8,2.7-1.7,4-2.5c0.7-0.4,1.2-1,1.9-1.3
	c0.4-0.2,1.1-0.2,1.5,0c3.3,1.3,6.6,2.6,9.9,3.9c2.4,0.9,4.8,1.7,7.4,2.4c-0.4-0.3-0.7-0.8-1.2-0.9c-3.1-1.4-6.1-2.7-9.3-3.9
	c-1.7-0.6-3.4-1-5.2-1.4c-0.1,0-0.2,0-0.4,0c-5-1.1-5.1-1.3-5.1-6.4c0-5.9-0.2-11.7-0.2-17.6c0-4.5,0.4-8.9,0.6-13.4
	c0-0.3-0.2-0.7-0.2-1c-0.1-1.2,0.1-1.9,1.6-2.4c6.6-2.2,13.4-2.6,20.1-3.8c3.5-0.6,7.1-0.7,10.6-1.2c3.8-0.6,7.5-1.5,11.3-2.2
	c4.2-0.7,8.5-1.2,12.8-1.7c0.8-0.1,1.7-0.2,2.5-0.4c2.4-0.6,3.2-0.1,3.3,2.3c0.1,2.5,0,5-0.1,7.5c-0.1,3.4-0.2,6.8-0.2,10.3
	c0,3.2,0.2,6.3,0.2,9.5c0,6.4,0.2,12.8,0,19.1c-0.1,5.1-0.6,10.2-1,15.3c-0.1,0.7-0.7,1.4-0.9,1.9c-5-1.3-9.7-2.5-14.4-3.7
	c0,0.1-0.1,0.2-0.1,0.3c1.9,0.8,3.8,1.7,5.7,2.5c4.1,1.7,8.3,3.2,12.3,5c2.3,1,2.6,3.1,2.8,5.4c0.3,4.1,0.9,8.1,1.2,12.2
	c0.1,1.4,0.2,2.6-1.2,3.7c-2.1,1.6-3.7,3.7-5.8,5.4c-2,1.6-4.3,2.7-6.3,4.2c-2.3,1.7-4.4,3.8-6.7,5.6c-0.3,0.3-1.1,0.3-1.5,0.1
	C870.6,424.7,867,422.6,863.4,420.6z M803.9,432.2L803.9,432.2c0.1,0.2,0.1,0.5,0.3,0.7c4.1,4.6,8.1,9.2,12.4,13.6
	c3.6,3.7,6.7,7.6,9.4,12.1c-0.4,0.3-0.8,0.5-1.1,0.7c0.2,0.2,0.3,0.3,0.5,0.5c3.3-3.5,6.4-7.3,9.4-11.1c3.2-3.9,6.3-8,9.3-11.9
	c-0.4-0.1-1-0.2-1.6-0.6c-3-1.8-6-3.7-8.9-5.6c-6.4-4.1-12.2-9-18-14.1c-3.5-3-7.2-5.7-11.1-8.8c-3.9,5-7.6,9.6-11.4,14.5
	C796.8,425.7,800.3,428.9,803.9,432.2z M891.4,391.3c-4.7-1.8-9.5-3.7-14.5-5.4c-5-1.7-10.1-3.1-15.7-4.8c0.2,2.4,0.4,4.3,0.5,6.3
	c-1.3,0.6-1.9-0.5-1.9-1.5c0.1-2.4,0.5-4.9,0.9-7.4c-3.3-0.7-7-1.5-10.9-2.3c0.3,2.8-1,4.8-2.4,6.7c-0.2,0.3-0.8,0.3-1.2,0.4
	c0.8-1.7,1.6-3.3,2.5-5.3c-1.6,0.2-2.8,0.3-3.9,0.5c-1.1,0.3-2.4,0.8-2.3,2.1c0.1,0.9,1,1.8,1.8,2.3c2.4,1.5,5,2.8,7.5,4.1
	c4.9,2.7,10.1,3.6,15.8,2.9c-0.1-0.9,0.2-2.1-0.3-2.5c-1.7-1.5-3.6-2.7-5.6-4.2c0.7,0,1.5-0.2,2,0c1.7,1,3.5,2.1,4.8,3.5
	c1.6,1.7,0.8,4-1.4,4.5c-3.8,0.8-7.7,0.7-11.5-0.4c-4.9-1.5-9.1-4.4-13.4-7c-1.5-0.9-1.9-2.2-1.4-3.5c0.4-1,1.5-1.8,2.4-2.5
	c0.6-0.4,1.4-0.4,2.2-0.6c-0.1-0.2-0.2-0.4-0.3-0.4c-4.4-1.6-8.7-3.1-13.1-4.7c-0.3-0.1-0.7-0.1-1,0.1c-3.5,2-6.9,4-10.8,6.3
	c3,1.6,5.4,3,7.9,4.2c3.3,1.5,6.8,2.7,10.2,4.2c3.3,1.5,6.6,3.1,9.9,4.8c4.5,2.2,8.9,4.4,13.3,6.8c3.3,1.8,6.4,4,9.8,5.7
	c1.4,0.7,3.5,1.3,4.7,0.7c2.7-1.3,5.2-3.1,7.4-5.2C886.5,397.1,888.9,394.1,891.4,391.3z M874.5,424.5c-0.6-6-1.1-11.6-1.6-17.1
	c0-0.3-0.5-0.6-0.8-0.8c-2.6-1.7-5.3-3.4-8-5.1c-1-0.7-2.1-1.4-3.2-1.9c-2.8-1.3-5.6-2.5-8.4-3.8c-3.1-1.5-6-3.2-9.1-4.6
	c-5.4-2.5-11-4.9-16.4-7.3c-2.1-0.9-4.2-1.9-6.6-3c0.1,1.1,0.1,1.8,0.1,2.5c0.1,1.7,0.4,3.4,0.3,5.1c-0.1,1.5,0.4,2.6,1.5,3.3
	c5.6,3.7,11.2,7.5,16.9,11c4.4,2.7,9.1,5.2,13.6,7.8c3.3,1.9,6.6,4,9.9,5.9c2.4-4.4,3.6-5.5,7.3-6.3c-0.5,0.6-0.6,1-0.9,1.1
	c-2.5,0.6-3.7,2.6-4.7,4.7c-0.5,1.1-0.4,1.9,0.8,2.7c2.5,1.6,4.8,3.4,7.2,5.1C872.9,424,873.4,424.1,874.5,424.5z M885.6,384.3
	c0.4-21.2,0.7-42.1,1-63c-0.8,0.1-1.8,0.1-2.7,0.3c-3.8,0.6-7.6,1.1-11.5,1.8c-5.6,1-11.1,2.2-16.7,2.9c-7.8,1-15.8,1.5-23.4,3.9
	c-1.5,0.5-3.1,0.2-2.9,3c0.3,5.4-0.4,10.9-0.6,16.3c-0.1,3.2,0.1,6.4,0.1,9.6c0,2.6,0,5.2,0,7.8C847.7,373.4,866.4,379,885.6,384.3z
	 M892.5,394c-4.3,3.5-8.5,6.7-12.5,10.2c-1.3,1.1-3.3,1.9-3.2,4.2c0.3,4.4,0.5,8.9,0.6,13.3c0,0.5-0.4,0.9-0.6,1.4
	c-0.2-0.1-0.3-0.1-0.5-0.2c-0.1-2.2-0.3-4.4-0.4-6.6c-0.2,0-0.3,0-0.5,0c0.1,2.7,0.3,5.3,0.4,8c0.3,0.2,0.5,0.3,0.8,0.5
	c0.8-1.1,1.5-2.3,2.5-3.2c4.2-3.8,8.4-7.6,12.8-11.3c1.6-1.3,2-2.7,1.7-4.5c-0.1-0.4-0.1-0.8-0.1-1.2
	C893.3,401.1,892.9,397.5,892.5,394z M850.7,444.7c-3.5,3.2-3.5,3.2-4.4,6.4c-0.9,3.2,0.7,5.5,4,6.3c1.8,0.4,3-0.2,3.9-1.5
	c0.8-1.1,1.7-2.2,2.5-3.3c1.3-1.9,0.8-3.4-1.4-3.6c-0.6-0.1-1.1,0.2-1.9,0.4C854.3,446.6,851.7,446.3,850.7,444.7z M824.6,459
	c-3.1-6.3-8-10.6-12.3-15.3c-5.9-6.5-12.1-12.7-18.2-19c-0.3-0.4-0.8-0.6-1.2-0.9c-0.2,0.1-0.3,0.2-0.5,0.4c0.7,1.3,1.3,2.8,2.3,3.9
	c1.3,1.5,3,2.7,4.4,4.1c1.1,1,2,2.1,3.1,3.2c3.1,3.1,6.4,6.2,9.4,9.4c2.7,2.8,5.3,5.8,7.9,8.7C821.1,455.2,822.7,457,824.6,459z
	 M889,339.4c-0.1,0-0.3,0-0.4,0c-0.4,4.8-1,9.6-1.3,14.4c-0.3,4.8-0.3,9.6-0.3,14.4c0,2.3-0.7,4.9,1.8,7.3
	c0.1-6.4,0.4-12.3,0.4-18.3C889.3,351.3,889.1,345.4,889,339.4z M838.5,445c0.2,0.2,0.4,0.3,0.6,0.5c1.9-2.7,4.8-4.6,6.2-7.7
	c-0.2-0.2-0.4-0.4-0.7-0.5C842.6,439.8,840.5,442.4,838.5,445z M833.8,452.8c-0.2-0.2-0.3-0.3-0.5-0.5c-2.1,2.3-4.2,4.7-6.3,7
	c0.2,0.2,0.4,0.4,0.6,0.6C829.7,457.5,831.7,455.2,833.8,452.8z M852.6,445.2c1,0.6,1.9,1.4,2.1,1.3c0.6-0.5,1-1.3,1.5-2
	c-0.1-0.1-0.3-0.3-0.4-0.4C854.9,444.4,854.1,444.7,852.6,445.2z M857.8,449.2c0-1.3,0-2.2,0-3c-0.3-0.2-0.6-0.5-0.9-0.7
	c-0.6,0.6-1.2,1.2-1.8,1.8c0.2,0.3,0.4,0.6,0.7,0.9C856.3,448.3,856.9,448.7,857.8,449.2z"/>
<path d="M845.3,401.3c-7.2-3.7-14.5-7.4-21.7-11.1C826.2,389.9,844.8,399.3,845.3,401.3z"/>
<path d="M822.7,384.4c5.2,0.5,17.3,6.5,17.8,8.4C834.5,390,828.6,387.2,822.7,384.4z"/>
<path d="M822.6,385.9c5.8,3.1,12.2,4.7,17.7,8.3c-0.1,0.2-0.2,0.5-0.3,0.7c-5.9-2.7-11.9-5.4-17.8-8.1
	C822.3,386.6,822.4,386.2,822.6,385.9z"/>
<path d="M852.3,396.8c1.2,1,2.7,1.6,3,2.6c0.4,1.3-1.4,1.6-2.1,1.4c-0.9-0.3-1.5-1.4-2.1-2.2C851,398.4,851.7,397.8,852.3,396.8z"/>
<path d="M856.1,405.9c1.8,0,3.2,1.1,2.9,2.2c-0.1,0.6-0.9,1.2-1.5,1.4c-0.9,0.3-2.3-1.4-2.2-2.6C855.5,406.5,856,406.1,856.1,405.9z
	"/>
<path d="M851.1,406.4c-0.9-0.9-1.7-1.4-2.1-2.2c-0.1-0.3,0.9-1.1,1.4-1.7c0.7,0.8,1.5,1.5,2.1,2.3
	C852.5,405,851.8,405.7,851.1,406.4z"/>
<path d="M861.4,403.1c-0.3,0.2-1,1-1.3,0.9c-0.8-0.4-1.5-1.2-2.2-1.8c0.5-0.3,1-0.8,1.5-1C860.5,401,861.3,401.4,861.4,403.1z"/>
<path d="M882.5,381.2c-0.2-0.4-0.3-0.8-0.5-1.2c0,0-0.1,0-0.2,0c-1,0.1-2,0.4-2.9,0.2c-7.8-2.2-15.5-4.4-23.3-6.7
	c-5.9-1.7-11.7-3.5-17.6-5.3c-1.3-0.4-2.5-0.6-3.8-0.8c-1.8-0.4-2.1-0.7-2.3-2.6c-0.2,0.7-0.4,1.2-0.6,1.8c-0.2,0-0.5,0-0.7,0
	c-0.1-1.8-0.3-3.6-0.4-5.4c0-7.1,0-14.2,0-21.4c0-2.3,0.3-4.6,0.6-6.9c0.1-0.5,0.8-1.2,1.2-1.3c6.5-1,13-2,19.5-2.9
	c5.4-0.8,10.8-1.5,16.2-2.2c3.1-0.4,6.2-0.6,9.3-0.8c1.7-0.1,3.4-0.2,5.1,0c0.5,0.1,1.4,1,1.4,1.5c0.2,5.2,0.1,10.5,0.2,15.7
	c0.1,4.1,0.3,8.2,0.4,12.3c0.1,3.6,0.1,7.1,0,10.7c-0.1,4.2-0.4,8.5-0.6,12.7c-0.1,0.9-0.3,1.8-0.5,2.6
	C882.8,381.2,882.6,381.2,882.5,381.2z M835,366.3c3.2,1,6.8,2.1,10.3,3.1c5.6,1.6,11.2,3,16.8,4.7c4.9,1.4,9.7,3.1,14.6,4.6
	c1.1,0.3,2.2,0.4,3.3,0.3c0.5,0,1.2-0.8,1.3-1.3c0.1-2.5,0.1-5,0.1-7.5c-0.1-6.2-0.4-12.5-0.4-18.7c0-4.3,0.7-8.6,0.8-12.9
	c0.2-4,0-7.9,0-12.2c-2,0.2-3.6,0.4-5.3,0.5c-4.9,0.5-9.8,0.9-14.6,1.5c-7.2,0.9-14.3,1.9-21.4,2.9c-2.4,0.3-4.8,0.9-7.2,1.5
	c-0.4,0.1-0.9,0.6-1,1c-0.3,4-0.6,8-0.7,12c-0.1,4.2-0.1,8.4-0.1,12.6c0,0.6,0,1.2,0.2,1.7c0.4,1.1,1,2.1,1.6,3.1
	c0.2,0.5,0.5,0.9,0.7,1.4C834.3,365.1,834.5,365.6,835,366.3z"/>
<path d="M890.2,407.9c-0.7,0.9-1.4,1.8-2.4,3c0.8-0.2,1.3-0.2,1.7-0.3c-0.2-0.1-0.4-0.3-0.6-0.4c-2.1,2.3-4.3,4.6-6.4,6.9
	c0.4-0.7,0.7-1.4,1.1-2.1c0-0.1-0.1-0.1-0.1-0.2c-1.1,1.1-2.2,2.1-3.4,3.2c-0.2-0.2-0.3-0.3-0.5-0.5c1.1-1.2,2.2-2.4,3.4-3.6
	c1.8-1.8,3.5-3.7,5.4-5.5c0.4-0.4,1-0.6,1.5-0.9C890,407.7,890.1,407.8,890.2,407.9z"/>
<path d="M803.9,432.2c-0.5-1-0.9-2-1.6-2.8c-1.9-2.2-4-4.3-6-6.3c-0.9-0.9-0.7-1.6,0.1-2.4c3.1-3.3,6.2-6.6,9.2-9.8
	c11.8,9.2,23.3,18.2,34.9,27.3c-4.4,5.7-9.2,11.4-14,16.7c-3.1-3.4-5.2-7.1-8.8-9.2c-0.4-0.7-0.7-1.5-1.2-1.9
	c-3.5-3.6-7.1-7.1-10.7-10.6C805.2,432.6,804.5,432.4,803.9,432.2C803.9,432.1,803.9,432.2,803.9,432.2z M838.6,438.5
	c-1-0.8-1.8-1.6-2.8-2.4c-0.9,1.4-1.6,2.5-2.2,3.5c0.7,0.8,1.2,1.3,1.9,2.1c-4.3,0.3-4.3,0.3-4.8,2.4c0.7,0.4,1.5,0.9,2.4,1.5
	C834.8,443.2,836.6,441,838.6,438.5z M833,434.4c-0.9,1.1-1.6,2-2.4,3c0.7,0.5,1.3,1,2,1.5c0.8-1.2,1.5-2.4,2.2-3.6
	c-1.6-1.2-3.2-2.4-4.8-3.6c-0.3-0.2-1.1-0.3-1.4,0c-0.7,0.7-1.3,1.6-2,2.4c1.2,1,2.2,1.8,3.1,2.5C831,435.9,830.6,433.1,833,434.4z
	 M826.7,453c1.8-2.2,3.6-4.3,5.4-6.5c-3-1.5-3-1.5-4.4,0.6c0.5,0.7,0.9,1.3,1.3,1.9c-0.7-0.1-1.4-0.2-2.3-0.3
	C825,450.3,824.9,451.5,826.7,453z M827.9,430.2c-3.4-2.9-2.7-2.7-5,1.1c0.8,0.6,1.6,1.3,2.6,2.1
	C826.4,432.2,827.2,431.2,827.9,430.2z M828.8,437.6c-1-0.8-1.9-1.6-2.8-2.4c-2.6,2.1-2.5,2.6,0.7,5.2
	C827.4,439.5,828.1,438.6,828.8,437.6z M803.5,418.3c2.3-0.8,0.5-2.3,0.8-3.6c0.7,0.4,1.3,0.6,1.8,0.9c0.5-0.5,1-0.8,1.5-1.4
	c-0.6-0.6-1.2-1-2.3-2.1c-1.2,1.4-2.4,2.7-3.6,4.1C802.5,417.1,803.1,417.7,803.5,418.3z M823.8,444.7c-1-0.7-1.9-1.4-2.8-2
	c-2,2.1-2.8,1.6,1.1,4.9C822.6,446.7,823.1,445.8,823.8,444.7z M816,425c0.9,0.8,1.8,1.6,2.8,2.5c0.5-0.6,0.8-1,1.1-1.5
	c0.3-0.5,0.7-0.9,1-1.4C818.3,422.4,818,422.4,816,425z M825.9,441.6c-0.9-1-1.8-1.9-2.6-2.8c-2.3,2.3-2.2,2.7,1.3,4.9
	C825,443,825.4,442.3,825.9,441.6z M810.8,432.1c-0.7,1-1.2,1.8-1.8,2.6c1,0.8,1.9,1.5,2.8,2.3c0.6-0.7,1.1-1.3,1.8-2
	C812.7,434,811.9,433.1,810.8,432.1z M817.7,439c-1.9,2.1-1.9,2.3,0.5,4.8C820.6,441.4,820.5,440.8,817.7,439z M815.7,425.9
	c-2.5,2.2-2.5,2.2,0.9,4.7c0.5-0.8,1-1.6,1.4-2.3C817.2,427.5,816.5,426.8,815.7,425.9z M831.6,440.1c-1.8-2.2-1.8-2.2-4.1,1.2
	c0.6,0.5,1.2,1.1,1.8,1.7C830.2,441.9,830.9,441,831.6,440.1z M822.8,436.9c0.3-0.4,0.6-0.6,0.8-0.9c0.4-0.6,0.8-1.2,1.2-1.8
	c-2.5-2-2.6-2-4,0.4C821.4,435.3,822,436.1,822.8,436.9z M822.1,425.8c-2.6,1.7-2.6,2.3-0.1,4.2c0.7-0.9,1.3-1.8,2-2.7
	c-0.2-0.2-0.4-0.5-0.6-0.7C823,426.3,822.5,426.1,822.1,425.8z M814.1,433.9c1.7-2.2,1.7-2.5-0.2-3.9c-0.7-0.5-1.3-0.8-1.7,0.1
	C811,432.3,813.3,432.7,814.1,433.9z M817.4,436.8c1.9-2.2,1.9-2.2-0.5-3.9C815.2,434.2,814.4,435,817.4,436.8z M820.7,439.9
	c1.7-2,1.7-2.3-0.6-4.1C818,437.5,818,437.5,820.7,439.9z M819.7,433.6c1.7-2.2,1.7-2.5,0.2-3.7c-0.9-0.8-1.3-0.2-1.8,0.5
	C816.9,432.5,818.9,432.7,819.7,433.6z M812.7,427.3c0.6-0.8,1.1-1.5,1.7-2.3c-0.6-0.6-1.2-1.1-2-1.8c-0.8,0.6-1.5,1.2-2.2,1.7
	c0.6,0.7,0.8,0.9,0.9,1C811.6,426.3,812,426.7,812.7,427.3z M807.9,429.2c-2.2,1.8-2.2,2.2,0.2,4.2
	C809.6,430.8,809.6,430.8,807.9,429.2z M811.6,422.2c-1.2-0.2-1.5-2.7-3.2-0.9c-1.8,1.9,1.1,2,1.2,3.5
	C810.4,423.8,810.9,423.1,811.6,422.2z M815.1,423.8c0.7-0.6,1.4-1.3,2.1-1.9c-2.3-2.3-2.4-2.3-3.9,0.5
	C813.8,422.9,814.4,423.3,815.1,423.8z M806.7,428.2c-0.6-0.7-1.1-1.4-1.6-1.9c-2.2,1.3-2.1,2.1,0.1,4
	C805.7,429.5,806.3,428.8,806.7,428.2z M801.5,421.4c0.6-0.7,1-1.3,1.4-1.8c-0.7-0.9-1.4-1.6-2-2.5c-0.5,0.6-1.1,1.2-1.6,1.8
	C800,419.7,800.7,420.5,801.5,421.4z M803.5,425.1c-1.7-1.9-1.7-1.9-3.4-0.9c0.6,0.8,1.2,1.8,2,2.9
	C802.6,426.2,803.1,425.7,803.5,425.1z M814.8,440.6c0.8-1.3,1.3-2,1.9-3c-0.7-0.4-1.4-0.9-2.1-1.1c-0.2-0.1-1,0.9-0.9,1.2
	C813.8,438.6,814.3,439.4,814.8,440.6z M812,421.5c0.7-0.9,1.2-1.5,1.8-2.3c-1-0.5-1.7-1.1-2.6-1.4c-0.2-0.1-1.1,1.1-0.9,1.4
	C810.6,420,811.3,420.6,812,421.5z M808.4,419.3c-0.8-0.5-1.5-1-2.3-1.2c-0.2-0.1-1,0.8-1,1.1c0.3,0.8,0.8,1.5,1.4,2.4
	C807.2,420.7,807.7,420.1,808.4,419.3z M798.7,419.9c-1.5,1.5-1.3,3,0.5,3.8c0.4-0.6,0.8-1.1,1.2-1.7
	C799.8,421.3,799.2,420.6,798.7,419.9z M808.9,425.7c-0.7-0.9-1.4-1.6-2.1-2.4c-1.7,1.8-1.5,2.1,0.9,3.9
	C808.1,426.6,808.4,426.2,808.9,425.7z M809.2,418.3c0.2-0.8,1.9-1.5,0.4-2.7c-1.3-1-1.7,0.3-2.7,1.1
	C807.6,417.3,808.3,417.7,809.2,418.3z M824.3,449.9c0.5-0.9,1.1-1.8,1.6-2.7c-0.3-0.4-0.6-0.6-0.8-0.9c-0.1-0.1-0.2-0.1-0.3-0.1
	C822.7,447.9,822.6,448.8,824.3,449.9z M804.3,423.9c0.5-0.7,0.9-1.2,1.2-1.6c-0.5-0.7-0.9-1.3-1.5-2.1c-0.7,0.9-1.1,1.4-1.5,2
	C803.1,422.8,803.7,423.3,804.3,423.9z M810.7,430.1c0.5-0.8,0.9-1.3,1.3-1.9c-0.7-0.6-1.4-1.1-2.1-1.7c-0.4,0.5-0.8,1-1.3,1.5
	C809.3,428.8,809.9,429.4,810.7,430.1z M827.1,442.6c-2,1.9-2.1,2.6-0.3,3.5c0.5-0.7,1-1.4,1.6-2.2C828,443.4,827.5,443,827.1,442.6
	z"/>
</svg>
