<?xml version="1.0" encoding="utf-8"?>
<!-- Generator: Adobe Illustrator 19.0.1, SVG Export Plug-In . SVG Version: 6.00 Build 0)  -->
<svg version="1.1" id="Camada_1" xmlns="http://www.w3.org/2000/svg" xmlns:xlink="http://www.w3.org/1999/xlink" x="0px" y="0px"
	 width="76.1px" height="31.3px" viewBox="505.6 370.6 76.1 31.3" enable-background="new 505.6 370.6 76.1 31.3"
	 xml:space="preserve">
<g>
	<path d="M581.7,391.1c-0.1-1.4,0-2.9-0.2-4.3c-0.2-1.8,0-4-0.9-5.4c-1-1.5-3.1-2.5-4.9-3.1c-1.6-0.6-3.5-0.3-5.3-0.5
		c-0.7-0.1-1.5-0.4-1.9-0.9c-4-4.6-8.6-7.5-15-5.9c-2.8,0.7-5.6,1.7-7.6,4.1c-2.4,2.9-2.6,3.3-6.4,3.9c-3.7,0.7-7.6,1-11.4,1.3
		c-4.8,0.4-9.6,0.5-14.4,1.2c-4.2,0.6-8.6,3.1-8.1,9.7c-0.4,2.8,0.7,5.6,3,7.8c1.6,1.5,3.4,2.9,5.7,2.8c2.3-0.1,4.5-0.5,6.8-0.6
		c5.1-0.3,10.2-0.5,15.4-0.7c1.1,0,2.2,0.1,3.2,0c4.3-0.4,8.6-0.9,13-1.4c7-0.8,14-1.5,21-2.3c1.7-0.2,3.4-0.6,5-1.1
		C580.9,395.2,581.9,393.3,581.7,391.1z M541.8,397.6c-4.6,0.5-9.3,0.9-13.9,1.3c-1.2,0.1-2.4,0.1-3.6,0.1c-3.2,0.1-6.3,0.3-9.5,0.4
		c-3,0.1-4.5-1.1-5.2-3.9c-0.5-2-1.1-4-1.4-6.1c-0.1-0.7,0.6-1.7,1.3-2.2c4.2-3.4,9.5-3.9,14.6-4.7c4.5-0.6,9.1-1,13.7-1.4
		c1.8-0.2,3.5-0.3,5.6-0.6c-2.2,6.8,0.5,11.9,6.1,16C546.8,397,544.3,397.4,541.8,397.6z M560.9,396.3c-1.6,0-3.3,0.3-4.9,0.5
		c-4.6,0.4-7-2.4-9.3-5.7c-1.5-2.2-2.4-4.5-2.1-7.2c0.4-4.4,2.1-8.1,6.3-10.2c1-0.5,2.2-0.7,3.3-0.8c3.1-0.2,6,0.3,8.8,1.8
		c2.8,1.6,4.4,3.9,5.1,6.9c0.3,1.3,0.4,2.7,0.1,4c-0.6,2.5-1.2,5.1-2.5,7.4C564.8,394.7,563.3,396.3,560.9,396.3z M580.1,391.2
		c-0.1,1-0.8,2.4-1.6,2.7c-3.6,1.7-7.6,1.5-11.8,2c3.5-4.8,3.4-10,3.1-15.2c1.9,0,3.6-0.1,5.2,0c3.5,0.1,4.4,1,4.8,4.8
		C580.1,387.4,580.3,389.3,580.1,391.2z"/>
	<path d="M565.3,379.8c-1-3-5.5-6.1-9.8-5.9c-2.8,0.1-5.8,1.9-8,4.9c-0.4,0.6-0.7,1.4-0.8,2.1c0,2,0.1,4,0.3,6
		c0.3,4.2,3.5,7.9,7.7,8.5c1,0.2,2.1-0.1,3.2-0.2c5-0.5,11.2-5.5,8.6-12.2C566.1,381.9,565.7,380.9,565.3,379.8z M565.1,385.8
		c0,0.2,0,0.4-0.1,0.5c-0.2,1.3,0.1,3-0.7,3.7c-1.6,1.6-3.7,2.7-5.7,3.8c-0.7,0.4-2,0-2.9-0.4c-3.2-1.5-6.2-3.5-7-7.3
		c-0.8-3.5,1.7-8.6,4.7-10c1.9-0.9,6-0.3,7.4,1.3c1.4,1.5,2.7,3.1,3.8,4.9c0.6,0.9,0.5,2.3,0.7,3.4
		C565.2,385.8,565.2,385.8,565.1,385.8z"/>
</g>
<path d="M515.3,388.2c2.2-1.6,20.2-3.3,21.7-2.2C529.7,386.7,522.5,387.4,515.3,388.2z"/>
<path d="M536.6,389.3c-7.4,0.7-14.9,1.3-22.3,2c0-0.2,0-0.4-0.1-0.7c3.7-0.7,7.5-0.7,11.3-1C529.3,389.4,533,388.3,536.6,389.3z"/>
<path d="M555.9,391c-2.5,0.6-5.7-3.1-5.1-6.3C552.5,386.8,554.3,389,555.9,391z"/>
</svg>
