<?xml version="1.0" encoding="utf-8"?>
<!-- Generator: Adobe Illustrator 19.0.1, SVG Export Plug-In . SVG Version: 6.00 Build 0)  -->
<svg version="1.1" id="Layer_1" xmlns="http://www.w3.org/2000/svg" xmlns:xlink="http://www.w3.org/1999/xlink" x="0px" y="0px"
	 width="24.8px" height="24.8px" viewBox="0 0 24.8 24.8" enable-background="new 0 0 24.8 24.8" xml:space="preserve">
<g>
	<path fill="#010002" d="M12.4,24.8C5.6,24.8,0,19.3,0,12.4C0,5.6,5.6,0,12.4,0c6.9,0,12.4,5.6,12.4,12.4
		C24.8,19.3,19.3,24.8,12.4,24.8L12.4,24.8z M12.4,1.4c-6.1,0-11,4.9-11,11c0,6.1,4.9,11,11,11c6.1,0,11-4.9,11-11
		C23.4,6.4,18.5,1.4,12.4,1.4L12.4,1.4z M12.4,1.4"/>
	<path fill="#010002" d="M16.2,16.9c-0.2,0-0.4-0.1-0.5-0.2l-3.8-3.8c-0.1-0.1-0.2-0.3-0.2-0.5V4.4c0-0.4,0.3-0.7,0.7-0.7
		c0.4,0,0.7,0.3,0.7,0.7v7.8l3.6,3.6c0.3,0.3,0.3,0.7,0,1C16.6,16.9,16.4,16.9,16.2,16.9L16.2,16.9z M16.2,16.9"/>
</g>
</svg>
