<?xml version="1.0" encoding="utf-8"?>
<!-- Generator: Adobe Illustrator 19.0.1, SVG Export Plug-In . SVG Version: 6.00 Build 0)  -->
<svg version="1.1" id="Camada_1" xmlns="http://www.w3.org/2000/svg" xmlns:xlink="http://www.w3.org/1999/xlink" x="0px" y="0px"
	 width="64.9px" height="45.7px" viewBox="280.1 390.6 64.9 45.7" enable-background="new 280.1 390.6 64.9 45.7"
	 xml:space="preserve">
<path fill="#FFFFFF" d="M280.1,402.3c0.8,0.7,1.6,1.6,2.6,2.1c1,0.5,2,0.8,3.2-0.2c1.7-1.5,3.7-2.9,5.7-3.9
	c4.6-2.3,9.4-4.4,14.7-4.7c3.3-0.1,6.6-0.4,9.8,0.1c3.6,0.5,7.2,1.7,10.8,2.9c4.9,1.6,8.8,5,12.2,8.7c2.3,2.5,2.8,2.8,5.3,0.6
	c0.9-0.8,1-1.6-0.1-2.3c-5.2-3.3-9.4-7.8-15-10.5c-4.9-2.4-9.8-3.7-15.1-4.2c-5.1-0.5-10,0.4-14.8,2.1c-5,1.8-10.1,3.4-14.7,6.4
	C283.2,400.2,281.8,401.2,280.1,402.3z"/>
<path fill="#FFFFFF" d="M338.6,414c-1.1-0.6-2.1-1-2.9-1.6c-3.5-2.7-7.2-5-11.5-6.4c-4.2-1.3-8.5-2.4-13-2.2c-3,0.1-6,0.9-9,1.5
	c-1.7,0.3-3.6,0.5-5.2,1.2c-2.7,1.1-5.2,2.5-7.9,3.8c-1.1,0.5-1.9,2.4-1.1,3.3c0.6,0.6,1.9,1.1,2.7,0.8c2.2-0.8,4.3-2.1,6.5-3
	c2.9-1.1,5.8-2.2,8.7-2.9c5.6-1.2,11.1-0.7,16.4,1.4c3.9,1.5,7.6,3.3,10.4,6.5c0.4,0.5,1.1,1,1.7,1.1c0.6,0.1,1.4-0.1,1.8-0.5
	C337.2,416.2,337.8,415.2,338.6,414z"/>
<path fill="#FFFFFF" d="M305.1,428.3c0.1,2.5,0.3,4.9,2.4,6.4c2.1,1.4,4.7,1.8,7.1,1.6c4.5-0.4,7.1-5.1,5.3-9.2
	c-1.2-2.7-3.6-4.1-6.1-4.7c-2.5-0.6-4.9,0.8-6.9,2.2C305.6,425.4,304.8,426.7,305.1,428.3z"/>
<path fill="#FFFFFF" d="M326.3,424.6c3.1-1.6,3.1-3,0.3-4.9c-0.2-0.2-0.4-0.4-0.7-0.6c-3.3-2.9-6.9-5-11.2-5.8
	c-1.9-0.3-3.9,0-5.9,0.1c-4.6,0.4-8.5,2.6-11.9,5.6c-0.4,0.3-0.7,1.1-0.5,1.5c0.5,1.5,2.4,2.2,4,1.5c1.5-0.7,2.8-1.7,4.4-2.3
	c2-0.8,4.1-1.7,6.2-1.8c3.2,0,6.7-0.4,9.3,2.3c0.1,0.1,0.3,0,0.3,0.1C322.5,421.7,324.3,423.1,326.3,424.6z"/>
<path d="M280.1,402.3c1.7-1.1,3.1-2,4.6-3c4.5-3,9.6-4.6,14.7-6.4c4.8-1.8,9.7-2.6,14.8-2.1c5.3,0.5,10.2,1.8,15.1,4.2
	c5.6,2.8,9.9,7.3,15,10.5c1.1,0.7,1,1.5,0.1,2.3c-2.5,2.1-2.9,1.9-5.3-0.6c-3.5-3.7-7.3-7.1-12.2-8.7c-3.5-1.2-7.1-2.3-10.8-2.9
	c-3.2-0.5-6.5-0.2-9.8-0.1c-5.3,0.2-10,2.4-14.7,4.7c-2.1,1-4,2.4-5.7,3.9c-1.2,1-2.2,0.8-3.2,0.2C281.8,403.8,281,403,280.1,402.3z
	"/>
<path d="M338.6,414c-0.9,1.2-1.5,2.2-2.3,3c-0.4,0.4-1.3,0.6-1.8,0.5c-0.6-0.1-1.3-0.6-1.7-1.1c-2.8-3.3-6.5-5-10.4-6.5
	c-5.3-2.1-10.8-2.6-16.4-1.4c-3,0.7-5.9,1.8-8.7,2.9c-2.2,0.9-4.2,2.2-6.5,3c-0.7,0.3-2.1-0.2-2.7-0.8c-0.8-0.9,0-2.8,1.1-3.3
	c2.6-1.2,5.2-2.7,7.9-3.8c1.6-0.7,3.4-0.9,5.2-1.2c3-0.5,6-1.3,9-1.5c4.4-0.2,8.7,0.9,13,2.2c4.3,1.3,8,3.6,11.5,6.4
	C336.5,413,337.6,413.4,338.6,414z"/>
<path d="M305.1,428.3c-0.4-1.6,0.5-2.9,1.7-3.7c2.1-1.4,4.5-2.7,6.9-2.2c2.6,0.6,4.9,2,6.1,4.7c1.9,4.1-0.7,8.7-5.3,9.2
	c-2.5,0.2-5-0.2-7.1-1.6C305.4,433.2,305.2,430.8,305.1,428.3z"/>
<path d="M326.3,424.6c-2-1.5-3.9-2.9-5.7-4.2c-0.1-0.1-0.3,0-0.3-0.1c-2.6-2.7-6.1-2.3-9.3-2.3c-2.1,0-4.2,1-6.2,1.8
	c-1.5,0.6-2.9,1.6-4.4,2.3c-1.5,0.7-3.4,0.1-4-1.5c-0.1-0.4,0.1-1.2,0.5-1.5c3.4-3,7.3-5.2,11.9-5.6c1.9-0.2,4-0.4,5.9-0.1
	c4.3,0.7,8,2.9,11.2,5.8c0.2,0.2,0.4,0.4,0.7,0.6C329.5,421.6,329.4,423,326.3,424.6z"/>
</svg>
