<?xml version="1.0" encoding="utf-8"?>
<!-- Generator: Adobe Illustrator 19.0.1, SVG Export Plug-In . SVG Version: 6.00 Build 0)  -->
<svg version="1.1" id="Layer_1" xmlns="http://www.w3.org/2000/svg" xmlns:xlink="http://www.w3.org/1999/xlink" x="0px" y="0px"
	 width="409.6px" height="358.6px" viewBox="0 0 409.6 358.6" enable-background="new 0 0 409.6 358.6" xml:space="preserve">
<g>
	<path d="M118.4,156.6c0,19,6.8,38.2,18.5,52.6c12.4,15.2,28.7,23.6,45.9,23.6c17.2,0,33.4-8.4,45.8-23.6
		c11.7-14.4,18.5-33.6,18.5-52.5v-16.2c12.3-39.4,7.7-71.7,3.5-81.3c0,0,0,0,0-0.1c-0.1-0.1-0.1-0.2-0.2-0.4c0-0.1-0.1-0.1-0.1-0.2
		c-0.1-0.1-0.1-0.2-0.2-0.3c0-0.1-0.1-0.1-0.1-0.2c-0.1-0.1-0.1-0.2-0.2-0.3c-0.1-0.1-0.1-0.2-0.2-0.2c-0.1-0.1-0.1-0.1-0.2-0.2
		c-0.1-0.1-0.2-0.2-0.2-0.2c-0.1-0.1-0.1-0.1-0.2-0.2c-0.1-0.1-0.2-0.2-0.3-0.2c-0.1-0.1-0.2-0.1-0.3-0.2c-0.1-0.1-0.2-0.1-0.2-0.2
		c-0.1-0.1-0.2-0.1-0.3-0.2c-0.1,0-0.1-0.1-0.2-0.1c-0.1-0.1-0.3-0.1-0.4-0.2c-0.1,0-0.1-0.1-0.2-0.1c-0.1-0.1-0.3-0.1-0.4-0.1
		c-0.1,0-0.1,0-0.2-0.1c-0.1,0-0.3-0.1-0.4-0.1c-0.1,0-0.1,0-0.2,0c-0.1,0-0.2,0-0.4,0c-0.1,0-0.2,0-0.3,0c-0.1,0-0.2,0-0.3,0
		c-0.1,0-0.2,0-0.4,0c-0.1,0-0.2,0-0.2,0c-0.1,0-0.3,0-0.4,0c0,0,0,0-0.1,0c-10,1.4-22.3-1.1-35.4-3.7c-21.4-4.3-45.6-9.2-64.3,3.6
		c-0.1,0-0.1,0-0.2,0c-19.8,0-33.6,16.2-33.6,39.4c0,16.9,6.9,47.9,8.1,53.2L118.4,156.6L118.4,156.6z M182.8,219.9
		c-27.5,0-51.6-29.6-51.6-63.3v-4.7c0-13.4,7.1-32.7,10.4-40.8c47.5,0.6,77.7,10.4,85.9,13.4l6.8,16.2v15.9
		C234.3,190.3,210.3,219.9,182.8,219.9L182.8,219.9z M143.9,68.1c0.4,0,0.8,0,1.2-0.1c1.7,0.3,3.5-0.1,5-1.2
		c14.4-10.9,35.5-6.7,55.9-2.6c11.1,2.2,21.7,4.4,31.6,4.4c0.9,0,1.8,0,2.7-0.1c2.1,8.9,3.7,27.7-0.9,50.9l-1-2.4
		c-0.6-1.5-1.8-2.7-3.3-3.4c-1.4-0.6-36-15.4-97.5-15.4h-0.1c-0.1,0-0.1,0-0.2,0c-0.1,0-0.3,0-0.4,0c-0.1,0-0.2,0-0.3,0
		c-0.1,0-0.2,0-0.3,0.1c-0.1,0-0.2,0.1-0.3,0.1c-0.1,0-0.2,0-0.3,0.1c-0.1,0-0.2,0.1-0.4,0.1c-0.1,0-0.2,0-0.2,0.1
		c-0.1,0-0.2,0.1-0.3,0.2c-0.1,0-0.2,0.1-0.2,0.1c-0.1,0.1-0.2,0.1-0.3,0.2c-0.1,0-0.2,0.1-0.2,0.1c-0.1,0.1-0.2,0.1-0.2,0.2
		c-0.1,0.1-0.2,0.1-0.3,0.2c-0.1,0.1-0.1,0.1-0.2,0.2c-0.1,0.1-0.2,0.2-0.3,0.2c-0.1,0.1-0.1,0.1-0.2,0.2c-0.1,0.1-0.2,0.2-0.3,0.3
		c-0.1,0.1-0.1,0.1-0.2,0.2c-0.1,0.1-0.1,0.2-0.2,0.3c-0.1,0.1-0.1,0.2-0.2,0.3c0,0.1-0.1,0.1-0.1,0.2c-0.1,0.1-0.1,0.3-0.2,0.4
		c0,0,0,0.1-0.1,0.1c0,0,0,0,0,0.1c0,0,0,0,0,0c-0.4,1-3.1,7.2-5.9,15.5c-1.4-8.3-2.4-16.8-2.4-22.9
		C123.1,81.5,129.5,68.1,143.9,68.1L143.9,68.1z M143.9,68.1"/>
	<path d="M278.8,244.5c-0.1,0-0.3-0.1-0.4-0.1l-43.2-9.2c-2.8-0.6-4.7-3-4.7-5.9c0-3.5-2.9-6.4-6.4-6.4s-6.4,2.9-6.4,6.4
		c0,7.7,4.5,14.3,11.4,17.3c-11.3,11.3-28.2,18.1-46.3,18.1c-18.1,0-35-6.8-46.3-18.1c6.8-2.9,11.4-9.6,11.4-17.3
		c0-3.5-2.9-6.4-6.4-6.4c-3.5,0-6.4,2.9-6.4,6.4c0,2.8-1.9,5.2-4.6,5.8l-43.3,9.2c-0.1,0-0.3,0.1-0.4,0.1c-21,5.9-32,26.6-32,43.9
		v10.2c0,9.5,8.4,17.3,18.8,17.3h218.6c10.4,0,18.8-7.7,18.8-17.3v-10.2C310.9,271.1,299.9,250.4,278.8,244.5L278.8,244.5z
		 M298.1,298.7c0,2.4-2.7,4.4-6,4.4H73.5c-3.2,0-6-2-6-4.4v-10.3c0-12.5,7.7-27.3,22.5-31.5l32.4-6.9c13.4,17.1,36.1,27.5,60.4,27.5
		c24.2,0,47-10.5,60.4-27.5l32.4,6.9c14.8,4.2,22.5,19.1,22.5,31.5V298.7z M298.1,298.7"/>
</g>
<path d="M0,44.8v269c0,24.7,20.1,44.8,44.8,44.8h269c24.7,0,44.8-20.1,44.8-44.8v-70.2l41.6-41.6c6.2-6.2,9.4-14.4,9.4-22.6
	c0-8.2-3.1-16.4-9.4-22.6L358.6,115V44.8c0-24.7-20.1-44.8-44.8-44.8h-269C20.1,0,0,20.1,0,44.8L0,44.8z M313.8,12.8
	c17.7,0,32,14.4,32,32v72.9c0,1.7,0.7,3.3,1.9,4.5l43.5,43.5c7.5,7.5,7.5,19.7,0,27.2l-43.5,43.5c-1.2,1.2-1.9,2.8-1.9,4.5v72.9
	c0,17.7-14.4,32-32,32h-269c-17.7,0-32-14.4-32-32v-269c0-17.7,14.4-32,32-32H313.8z M313.8,12.8"/>
</svg>
